<svg width="374" height="202" viewBox="0 0 374 202" fill="none" xmlns="http://www.w3.org/2000/svg">
<path d="M3.94 16.74H16.4V24.76H13.9V18.56H6.32V24.78H3.94V16.74ZM5.36 19.62H14.62V21.24H5.36V19.62ZM5.36 22.34H15.02V24.16H5.36V22.34ZM1.06 10.58H18.98V12.72H1.06V10.58ZM8.76 8.24H11.26V16.28H8.76V8.24ZM7.98 11.08L9.86 11.82C9.42 12.5 8.90667 13.1467 8.32 13.76C7.74667 14.3733 7.12 14.9467 6.44 15.48C5.77333 16.0133 5.06667 16.4933 4.32 16.92C3.57333 17.3467 2.81333 17.7067 2.04 18C1.93333 17.8 1.78667 17.58 1.6 17.34C1.41333 17.1 1.22 16.8667 1.02 16.64C0.833333 16.4133 0.653333 16.22 0.48 16.06C1.22667 15.82 1.96 15.5267 2.68 15.18C3.41333 14.8333 4.11333 14.4467 4.78 14.02C5.44667 13.58 6.05333 13.1133 6.6 12.62C7.14667 12.1133 7.60667 11.6 7.98 11.08ZM11.96 11.14C12.3467 11.6467 12.8267 12.1333 13.4 12.6C13.9733 13.0667 14.6 13.5133 15.28 13.94C15.96 14.3533 16.6667 14.7333 17.4 15.08C18.1467 15.4133 18.88 15.6933 19.6 15.92C19.44 16.08 19.26 16.2733 19.06 16.5C18.86 16.7267 18.6667 16.96 18.48 17.2C18.3067 17.44 18.1667 17.66 18.06 17.86C17.3133 17.5667 16.5667 17.2133 15.82 16.8C15.0867 16.3867 14.3667 15.9267 13.66 15.42C12.9667 14.9 12.3133 14.3533 11.7 13.78C11.1 13.1933 10.5667 12.5867 10.1 11.96L11.96 11.14ZM15.16 6.04L16.84 7.96C15.9067 8.2 14.8867 8.40667 13.78 8.58C12.6733 8.75333 11.5267 8.9 10.34 9.02C9.16667 9.14 7.98667 9.24 6.8 9.32C5.61333 9.38667 4.46 9.44 3.34 9.48C3.3 9.18667 3.22 8.84 3.1 8.44C2.98 8.04 2.86 7.70667 2.74 7.44C3.84667 7.38667 4.96667 7.32 6.1 7.24C7.24667 7.16 8.36667 7.06667 9.46 6.96C10.5667 6.84 11.6067 6.70667 12.58 6.56C13.5533 6.4 14.4133 6.22667 15.16 6.04ZM24.6 6.1H26.8V24.74H24.6V6.1ZM21.56 12.68H29.76V14.92H21.56V12.68ZM24.16 13.86L25.5 14.52C25.3267 15.1867 25.1267 15.8933 24.9 16.64C24.6733 17.3733 24.42 18.1067 24.14 18.84C23.86 19.5733 23.5667 20.2667 23.26 20.92C22.9533 21.56 22.6267 22.12 22.28 22.6C22.2133 22.3467 22.1133 22.0733 21.98 21.78C21.86 21.4733 21.7267 21.1733 21.58 20.88C21.4467 20.5867 21.32 20.3333 21.2 20.12C21.6 19.6267 21.9867 19.02 22.36 18.3C22.7467 17.5667 23.1 16.8133 23.42 16.04C23.74 15.2533 23.9867 14.5267 24.16 13.86ZM26.78 15.02C26.8867 15.1267 27.04 15.2933 27.24 15.52C27.4533 15.7467 27.6867 16.0067 27.94 16.3C28.1933 16.58 28.4333 16.8667 28.66 17.16C28.9 17.44 29.1133 17.6933 29.3 17.92C29.5 18.1467 29.64 18.32 29.72 18.44L28.26 20.32C28.1267 20.0267 27.9533 19.6867 27.74 19.3C27.5267 18.9 27.2933 18.4933 27.04 18.08C26.7867 17.6533 26.54 17.2533 26.3 16.88C26.06 16.5067 25.8533 16.2 25.68 15.96L26.78 15.02ZM21.54 7.64L23.22 7.2C23.3933 7.68 23.5467 8.2 23.68 8.76C23.8267 9.32 23.9467 9.86667 24.04 10.4C24.1333 10.9333 24.2 11.4133 24.24 11.84L22.44 12.32C22.4267 11.8933 22.3733 11.4133 22.28 10.88C22.2 10.3333 22.0933 9.78 21.96 9.22C21.84 8.64667 21.7 8.12 21.54 7.64ZM28.12 7.1L30.14 7.54C29.98 8.08667 29.8067 8.64667 29.62 9.22C29.4333 9.79333 29.2467 10.3467 29.06 10.88C28.8733 11.4 28.7 11.86 28.54 12.26L27.02 11.82C27.1667 11.3933 27.3067 10.9067 27.44 10.36C27.5867 9.8 27.72 9.23333 27.84 8.66C27.96 8.08667 28.0533 7.56667 28.12 7.1ZM35.7 6H37.94V24.78H35.7V6ZM29.72 18.52L40 16.68L40.36 18.9L30.08 20.76L29.72 18.52ZM30.84 8.72L32.02 7.1C32.3933 7.31333 32.78 7.56 33.18 7.84C33.5933 8.12 33.98 8.40667 34.34 8.7C34.7133 8.99333 35.0067 9.26667 35.22 9.52L33.98 11.32C33.78 11.0533 33.5 10.7667 33.14 10.46C32.7933 10.1533 32.42 9.84667 32.02 9.54C31.62 9.23333 31.2267 8.96 30.84 8.72ZM29.94 13.76L31.06 12.04C31.46 12.24 31.8733 12.48 32.3 12.76C32.7267 13.0267 33.1333 13.3 33.52 13.58C33.9067 13.8467 34.22 14.1067 34.46 14.36L33.24 16.28C33.0267 16.0267 32.7333 15.7533 32.36 15.46C31.9867 15.1533 31.5867 14.8533 31.16 14.56C30.7467 14.2533 30.34 13.9867 29.94 13.76ZM54.68 7.18H58.38V9.24H54.68V7.18ZM50.16 8.02H54.28V10H50.16V8.02ZM54.92 10.84H58.3V12.82H54.92V10.84ZM54.9 14.52H58.26V16.5H54.9V14.52ZM45.08 10.84H48.44V12.82H45.08V10.84ZM45.12 14.5H48.46V16.48H45.12V14.5ZM43.92 7.32L46.6 8.04C46.56 8.2 46.3933 8.3 46.1 8.34L46.42 19.1H44.28L43.92 7.32ZM57.02 7.18H59.22C59.22 8.15333 59.2133 9.18 59.2 10.26C59.1867 11.3267 59.16 12.3933 59.12 13.46C59.0933 14.5133 59.06 15.52 59.02 16.48C58.98 17.44 58.94 18.2933 58.9 19.04H56.64C56.7067 18.2667 56.76 17.4 56.8 16.44C56.8533 15.4667 56.8933 14.4533 56.92 13.4C56.96 12.3333 56.9867 11.2667 57 10.2C57.0267 9.13333 57.0333 8.12667 57.02 7.18ZM47.66 6.2L49.46 7.92C48.78 8.26667 48.0667 8.6 47.32 8.92C46.5733 9.22667 45.8667 9.5 45.2 9.74C45.1467 9.52667 45.0467 9.25333 44.9 8.92C44.7533 8.58667 44.62 8.31333 44.5 8.1C45.06 7.83333 45.6267 7.52667 46.2 7.18C46.7733 6.82 47.26 6.49333 47.66 6.2ZM49.14 13.9H51.06V18.88H49.14V13.9ZM49.2 6.26H51.22V11.36H53.34V13.22H49.2V6.26ZM52.18 11.36H54.2V18.94H52.18V11.36ZM42.38 18.14H60.88V20.34H42.38V18.14ZM52.96 21.66L54.76 20.06C55.48 20.38 56.2133 20.7333 56.96 21.12C57.72 21.4933 58.44 21.86 59.12 22.22C59.8 22.58 60.3733 22.9 60.84 23.18L58.46 24.82C58.0467 24.5267 57.5333 24.1933 56.92 23.82C56.32 23.46 55.6733 23.0933 54.98 22.72C54.3 22.3333 53.6267 21.98 52.96 21.66ZM48.04 20.12L50.16 21.64C49.6267 22 49.02 22.38 48.34 22.78C47.66 23.1667 46.9667 23.5333 46.26 23.88C45.5667 24.24 44.9133 24.5467 44.3 24.8C44.0867 24.56 43.8 24.28 43.44 23.96C43.08 23.64 42.7533 23.3667 42.46 23.14C43.1 22.9 43.7667 22.6067 44.46 22.26C45.1667 21.9133 45.8333 21.5533 46.46 21.18C47.1 20.7933 47.6267 20.44 48.04 20.12ZM74.6 6.02H76.94V8.42H74.6V6.02ZM72.64 11.16V14.86H78.98V11.16H72.64ZM70.72 9.9H81V16.1H70.72V9.9ZM75 12.64V13.34H76.56V12.64H75ZM73.44 11.72H78.16V14.28H73.44V11.72ZM73.44 19.88V20.6H78.2V19.88H73.44ZM73.44 17.96V18.66H78.2V17.96H73.44ZM71.22 16.7H80.5V21.86H71.22V16.7ZM69.82 7.54H81.82V9.28H69.82V7.54ZM69.56 22.56H81.84V24.48H69.56V22.56ZM63.3 10.16H69.92V12.38H63.3V10.16ZM65.74 6H67.9V24.78H65.74V6ZM65.7 11.68L67.02 12.12C66.8867 12.92 66.7133 13.7467 66.5 14.6C66.2867 15.44 66.0467 16.2733 65.78 17.1C65.5133 17.9133 65.22 18.6733 64.9 19.38C64.5933 20.0867 64.26 20.6933 63.9 21.2C63.7933 20.8933 63.6267 20.5333 63.4 20.12C63.1867 19.7067 62.9933 19.3667 62.82 19.1C63.14 18.66 63.4467 18.1467 63.74 17.56C64.0333 16.9733 64.3067 16.3467 64.56 15.68C64.8133 15.0133 65.0333 14.34 65.22 13.66C65.42 12.9667 65.58 12.3067 65.7 11.68ZM67.8 13.12C67.9067 13.2533 68.0733 13.4933 68.3 13.84C68.54 14.1733 68.7867 14.54 69.04 14.94C69.3067 15.3267 69.5533 15.6933 69.78 16.04C70.0067 16.3733 70.16 16.6067 70.24 16.74L69 18.46C68.88 18.18 68.7267 17.84 68.54 17.44C68.3533 17.04 68.1467 16.6267 67.92 16.2C67.7067 15.7733 67.5 15.3733 67.3 15C67.1133 14.6267 66.9467 14.32 66.8 14.08L67.8 13.12ZM84.42 10.68H102.02V13.06H84.42V10.68ZM91.92 6.02H94.48V24.8H91.92V6.02ZM91.4 11.98L93.52 12.7C93.0667 13.7533 92.5467 14.7733 91.96 15.76C91.3733 16.7467 90.7267 17.68 90.02 18.56C89.3267 19.44 88.58 20.2533 87.78 21C86.9933 21.7333 86.1667 22.3667 85.3 22.9C85.1667 22.7 84.9933 22.4733 84.78 22.22C84.5667 21.9667 84.3467 21.72 84.12 21.48C83.8933 21.2267 83.6867 21.02 83.5 20.86C84.3267 20.4067 85.1267 19.86 85.9 19.22C86.6867 18.5667 87.4267 17.8533 88.12 17.08C88.8133 16.2933 89.4333 15.4667 89.98 14.6C90.54 13.7333 91.0133 12.86 91.4 11.98ZM94.94 12.08C95.3267 12.9333 95.8067 13.78 96.38 14.62C96.9533 15.46 97.5867 16.26 98.28 17.02C98.9867 17.78 99.7267 18.48 100.5 19.12C101.273 19.76 102.067 20.3 102.88 20.74C102.693 20.8867 102.48 21.0867 102.24 21.34C102.013 21.58 101.793 21.8333 101.58 22.1C101.38 22.3667 101.213 22.6067 101.08 22.82C100.24 22.2867 99.4333 21.66 98.66 20.94C97.8867 20.2067 97.1467 19.4067 96.44 18.54C95.7333 17.66 95.0867 16.7333 94.5 15.76C93.9133 14.7867 93.3867 13.7933 92.92 12.78L94.94 12.08ZM107.94 16.74H120.4V24.76H117.9V18.56H110.32V24.78H107.94V16.74ZM109.36 19.62H118.62V21.24H109.36V19.62ZM109.36 22.34H119.02V24.16H109.36V22.34ZM105.06 10.58H122.98V12.72H105.06V10.58ZM112.76 8.24H115.26V16.28H112.76V8.24ZM111.98 11.08L113.86 11.82C113.42 12.5 112.907 13.1467 112.32 13.76C111.747 14.3733 111.12 14.9467 110.44 15.48C109.773 16.0133 109.067 16.4933 108.32 16.92C107.573 17.3467 106.813 17.7067 106.04 18C105.933 17.8 105.787 17.58 105.6 17.34C105.413 17.1 105.22 16.8667 105.02 16.64C104.833 16.4133 104.653 16.22 104.48 16.06C105.227 15.82 105.96 15.5267 106.68 15.18C107.413 14.8333 108.113 14.4467 108.78 14.02C109.447 13.58 110.053 13.1133 110.6 12.62C111.147 12.1133 111.607 11.6 111.98 11.08ZM115.96 11.14C116.347 11.6467 116.827 12.1333 117.4 12.6C117.973 13.0667 118.6 13.5133 119.28 13.94C119.96 14.3533 120.667 14.7333 121.4 15.08C122.147 15.4133 122.88 15.6933 123.6 15.92C123.44 16.08 123.26 16.2733 123.06 16.5C122.86 16.7267 122.667 16.96 122.48 17.2C122.307 17.44 122.167 17.66 122.06 17.86C121.313 17.5667 120.567 17.2133 119.82 16.8C119.087 16.3867 118.367 15.9267 117.66 15.42C116.967 14.9 116.313 14.3533 115.7 13.78C115.1 13.1933 114.567 12.5867 114.1 11.96L115.96 11.14ZM119.16 6.04L120.84 7.96C119.907 8.2 118.887 8.40667 117.78 8.58C116.673 8.75333 115.527 8.9 114.34 9.02C113.167 9.14 111.987 9.24 110.8 9.32C109.613 9.38667 108.46 9.44 107.34 9.48C107.3 9.18667 107.22 8.84 107.1 8.44C106.98 8.04 106.86 7.70667 106.74 7.44C107.847 7.38667 108.967 7.32 110.1 7.24C111.247 7.16 112.367 7.06667 113.46 6.96C114.567 6.84 115.607 6.70667 116.58 6.56C117.553 6.4 118.413 6.22667 119.16 6.04ZM129.78 7.72H143.44V9.52H129.78V7.72ZM129.96 10.3H141.7V12.04H129.96V10.3ZM127.66 12.84H139.22V14.66H127.66V12.84ZM126.34 18.08H138.24V19.88H126.34V18.08ZM129.6 6L132.16 6.64C131.8 7.57333 131.367 8.48 130.86 9.36C130.367 10.2267 129.827 11.0333 129.24 11.78C128.667 12.5267 128.073 13.1733 127.46 13.72C127.3 13.56 127.08 13.3867 126.8 13.2C126.52 13.0133 126.233 12.8267 125.94 12.64C125.66 12.44 125.42 12.2867 125.22 12.18C126.167 11.4867 127.027 10.5933 127.8 9.5C128.573 8.39333 129.173 7.22667 129.6 6ZM138.48 12.84H140.9C140.9 13.8533 140.907 14.8333 140.92 15.78C140.947 16.7133 140.987 17.58 141.04 18.38C141.107 19.18 141.193 19.88 141.3 20.48C141.42 21.0667 141.553 21.5267 141.7 21.86C141.86 22.1933 142.053 22.36 142.28 22.36C142.427 22.36 142.527 22.1067 142.58 21.6C142.647 21.0933 142.687 20.4133 142.7 19.56C142.927 19.84 143.173 20.12 143.44 20.4C143.72 20.68 143.987 20.9067 144.24 21.08C144.147 22.36 143.953 23.2867 143.66 23.86C143.38 24.4467 142.867 24.74 142.12 24.74C141.307 24.74 140.66 24.4267 140.18 23.8C139.7 23.1867 139.34 22.3333 139.1 21.24C138.86 20.1467 138.7 18.8867 138.62 17.46C138.54 16.02 138.493 14.48 138.48 12.84ZM127.46 15.92L129.26 15.2C129.54 15.5467 129.807 15.94 130.06 16.38C130.313 16.8067 130.493 17.1867 130.6 17.52L128.68 18.3C128.6 17.9667 128.44 17.58 128.2 17.14C127.96 16.6867 127.713 16.28 127.46 15.92ZM132.22 20.9L133.7 19.64C134.193 19.9067 134.72 20.22 135.28 20.58C135.853 20.9267 136.407 21.2733 136.94 21.62C137.473 21.9667 137.907 22.28 138.24 22.56L136.66 24C136.34 23.6933 135.927 23.36 135.42 23C134.913 22.6267 134.38 22.26 133.82 21.9C133.26 21.5267 132.727 21.1933 132.22 20.9ZM131.32 15.06H133.56V24.74H131.32V15.06ZM135.54 15.14L137.66 15.78C137.313 16.2333 136.967 16.68 136.62 17.12C136.273 17.5467 135.96 17.92 135.68 18.24L134.16 17.64C134.32 17.4133 134.487 17.1533 134.66 16.86C134.833 16.5533 135 16.2533 135.16 15.96C135.32 15.6533 135.447 15.38 135.54 15.14ZM130.84 18.86L132.6 19.54C132.2 20.2067 131.707 20.86 131.12 21.5C130.533 22.1267 129.9 22.7 129.22 23.22C128.54 23.74 127.853 24.18 127.16 24.54C127.053 24.3533 126.913 24.1467 126.74 23.92C126.567 23.7067 126.387 23.4933 126.2 23.28C126.013 23.0667 125.833 22.8933 125.66 22.76C126.327 22.5067 126.987 22.1733 127.64 21.76C128.293 21.3467 128.9 20.8933 129.46 20.4C130.02 19.8933 130.48 19.38 130.84 18.86ZM149.48 25.76L148.84 24.14C149.68 23.8733 150.32 23.5067 150.76 23.04C151.213 22.5867 151.44 22.0667 151.44 21.48L151.28 19.52L152.4 21.3C152.227 21.4467 152.04 21.56 151.84 21.64C151.64 21.72 151.427 21.76 151.2 21.76C150.707 21.76 150.267 21.6067 149.88 21.3C149.493 20.98 149.3 20.5333 149.3 19.96C149.3 19.4 149.493 18.96 149.88 18.64C150.267 18.32 150.727 18.16 151.26 18.16C151.967 18.16 152.5 18.4067 152.86 18.9C153.233 19.3933 153.42 20.06 153.42 20.9C153.42 22.0333 153.073 23.0333 152.38 23.9C151.687 24.7667 150.72 25.3867 149.48 25.76ZM178.68 16.38H183.46V18.12H178.68V16.38ZM175.64 9.28C176.387 9.26667 177.233 9.24667 178.18 9.22C179.14 9.18 180.147 9.14667 181.2 9.12C182.253 9.08 183.307 9.04 184.36 9L184.34 10.9C183.34 10.9533 182.327 11.0067 181.3 11.06C180.287 11.1133 179.307 11.16 178.36 11.2C177.427 11.24 176.567 11.28 175.78 11.32L175.64 9.28ZM178.98 14.68L181.12 15.18C180.653 16.3533 180.007 17.42 179.18 18.38C178.367 19.34 177.473 20.1267 176.5 20.74C176.393 20.5933 176.24 20.4267 176.04 20.24C175.853 20.04 175.653 19.8467 175.44 19.66C175.227 19.4733 175.04 19.3267 174.88 19.22C175.8 18.7133 176.62 18.0733 177.34 17.3C178.06 16.5133 178.607 15.64 178.98 14.68ZM182.76 16.38H183.18L183.56 16.32L184.96 16.86C184.507 18.2867 183.86 19.52 183.02 20.56C182.193 21.5867 181.213 22.44 180.08 23.12C178.96 23.8 177.733 24.3467 176.4 24.76C176.28 24.48 176.107 24.1533 175.88 23.78C175.653 23.42 175.44 23.1333 175.24 22.92C176.427 22.64 177.527 22.22 178.54 21.66C179.553 21.0867 180.427 20.3867 181.16 19.56C181.893 18.7333 182.427 17.78 182.76 16.7V16.38ZM179.12 17.8C179.52 18.64 180.047 19.3933 180.7 20.06C181.367 20.7267 182.153 21.3 183.06 21.78C183.98 22.2467 185.007 22.6067 186.14 22.86C185.9 23.0733 185.647 23.3733 185.38 23.76C185.113 24.1467 184.9 24.4867 184.74 24.78C183.513 24.4467 182.42 23.98 181.46 23.38C180.5 22.78 179.667 22.0533 178.96 21.2C178.253 20.3467 177.66 19.38 177.18 18.3L179.12 17.8ZM177.66 10.94H179.72C179.64 11.7 179.5 12.3933 179.3 13.02C179.1 13.6333 178.773 14.1733 178.32 14.64C177.88 15.1067 177.233 15.5 176.38 15.82C176.273 15.5667 176.1 15.2733 175.86 14.94C175.633 14.6067 175.413 14.3533 175.2 14.18C175.853 13.9667 176.347 13.7133 176.68 13.42C177.013 13.1133 177.247 12.7533 177.38 12.34C177.527 11.9267 177.62 11.46 177.66 10.94ZM180.78 10.92H182.8V12.94C182.8 13.1667 182.82 13.3067 182.86 13.36C182.913 13.4 183 13.42 183.12 13.42C183.16 13.42 183.227 13.42 183.32 13.42C183.413 13.42 183.507 13.42 183.6 13.42C183.707 13.42 183.78 13.42 183.82 13.42C183.913 13.42 183.987 13.3933 184.04 13.34C184.093 13.2733 184.133 13.1467 184.16 12.96C184.187 12.76 184.207 12.46 184.22 12.06C184.407 12.22 184.673 12.3667 185.02 12.5C185.38 12.62 185.693 12.7133 185.96 12.78C185.88 13.74 185.693 14.3867 185.4 14.72C185.12 15.04 184.68 15.2 184.08 15.2C184 15.2 183.9 15.2 183.78 15.2C183.673 15.2 183.553 15.2 183.42 15.2C183.287 15.2 183.16 15.2 183.04 15.2C182.933 15.2 182.847 15.2 182.78 15.2C182.22 15.2 181.793 15.1333 181.5 15C181.22 14.8533 181.027 14.62 180.92 14.3C180.827 13.9667 180.78 13.52 180.78 12.96V10.92ZM178.52 5.92L180.86 6.6C180.62 7.06667 180.373 7.54667 180.12 8.04C179.867 8.52 179.607 8.98 179.34 9.42C179.087 9.84667 178.853 10.2267 178.64 10.56L176.84 9.92C177.04 9.56 177.247 9.14667 177.46 8.68C177.673 8.21333 177.873 7.74 178.06 7.26C178.247 6.78 178.4 6.33333 178.52 5.92ZM181.66 7.96L183.38 7.14C183.713 7.48667 184.053 7.88 184.4 8.32C184.76 8.74667 185.093 9.18 185.4 9.62C185.707 10.0467 185.94 10.44 186.1 10.8L184.28 11.74C184.133 11.3933 183.913 11 183.62 10.56C183.34 10.12 183.027 9.67333 182.68 9.22C182.333 8.76667 181.993 8.34667 181.66 7.96ZM167.46 10.58H175.5V24.44H173.66V12.56H169.22V24.72H167.46V10.58ZM168.28 18.54H174.86V20.36H168.28V18.54ZM168.28 21.58H174.86V23.44H168.28V21.58ZM167.32 6.86H175.44V8.84H167.32V6.86ZM169.5 7.44H171.06V12.3H169.5V7.44ZM171.86 7.44H173.46V12.3H171.86V7.44ZM170.02 12.12H171.12V14.04C171.12 14.4 171.087 14.7867 171.02 15.2C170.967 15.6133 170.853 16.0267 170.68 16.44C170.52 16.84 170.287 17.2067 169.98 17.54C169.9 17.4333 169.767 17.3 169.58 17.14C169.393 16.98 169.233 16.8733 169.1 16.82C169.38 16.5267 169.58 16.22 169.7 15.9C169.833 15.58 169.92 15.26 169.96 14.94C170 14.62 170.02 14.3133 170.02 14.02V12.12ZM171.8 12.12H172.9V15.24C172.9 15.36 172.907 15.4333 172.92 15.46C172.933 15.4867 172.98 15.5 173.06 15.5C173.087 15.5 173.12 15.5 173.16 15.5C173.2 15.5 173.24 15.5 173.28 15.5C173.333 15.5 173.373 15.5 173.4 15.5C173.507 15.5 173.573 15.5 173.6 15.5C173.64 15.4867 173.667 15.4733 173.68 15.46C173.787 15.5533 173.94 15.64 174.14 15.72C174.34 15.7867 174.527 15.84 174.7 15.88C174.58 16.4133 174.213 16.68 173.6 16.68C173.56 16.68 173.493 16.68 173.4 16.68C173.307 16.68 173.22 16.68 173.14 16.68C173.06 16.68 172.987 16.68 172.92 16.68C172.48 16.68 172.18 16.5867 172.02 16.4C171.873 16.2133 171.8 15.8267 171.8 15.24V12.12ZM188.46 16.42H195.92V24.06H193.66V18.56H190.62V24.56H188.46V16.42ZM194.34 6L196.2 7.76C195.453 8.02667 194.64 8.27333 193.76 8.5C192.88 8.72667 191.98 8.92 191.06 9.08C190.14 9.22667 189.247 9.35333 188.38 9.46C188.34 9.19333 188.247 8.88 188.1 8.52C187.953 8.16 187.813 7.85333 187.68 7.6C188.48 7.49333 189.287 7.36 190.1 7.2C190.927 7.02667 191.707 6.84 192.44 6.64C193.173 6.42667 193.807 6.21333 194.34 6ZM190.98 8.3H193.3V17.52H190.98V8.3ZM197.3 6.1H199.7V24.8H197.3V6.1ZM202.88 6.1H205.32V24.72H202.88V6.1ZM187.8 11.66H196.28V13.9H187.8V11.66ZM195.82 9.6H206.6V11.92H195.82V9.6ZM198.4 15.48H204.12V17.76H198.4V15.48ZM198.4 21.42H204.12V23.7H198.4V21.42ZM189.5 21.28H194.94V23.42H189.5V21.28ZM209.98 7.24H225.98V9.62H209.98V7.24ZM208.92 15.72H227.14V18.14H208.92V15.72ZM211.18 10.92L213.38 10.26C213.607 10.7 213.827 11.1667 214.04 11.66C214.267 12.14 214.46 12.62 214.62 13.1C214.793 13.5667 214.92 13.9867 215 14.36L212.66 15.1C212.593 14.7267 212.487 14.3067 212.34 13.84C212.193 13.36 212.02 12.8667 211.82 12.36C211.62 11.84 211.407 11.36 211.18 10.92ZM222.58 10.2L225.16 10.86C224.92 11.38 224.667 11.8933 224.4 12.4C224.147 12.9067 223.893 13.3933 223.64 13.86C223.4 14.3133 223.167 14.7133 222.94 15.06L220.84 14.44C221.053 14.0533 221.267 13.6133 221.48 13.12C221.707 12.6267 221.913 12.1267 222.1 11.62C222.3 11.1133 222.46 10.64 222.58 10.2ZM216.74 8.24H219.24V24.78H216.74V8.24ZM234.54 18.58H243.12V20.5H234.54V18.58ZM236.58 6.12L238.72 6.46C238.373 7.54 237.933 8.63333 237.4 9.74C236.867 10.8467 236.173 11.8733 235.32 12.82C235.133 12.5933 234.873 12.3467 234.54 12.08C234.22 11.8 233.927 11.6 233.66 11.48C234.18 10.9467 234.627 10.38 235 9.78C235.373 9.16667 235.693 8.54667 235.96 7.92C236.227 7.29333 236.433 6.69333 236.58 6.12ZM237.68 7.58H240.16V9.38H236.76L237.68 7.58ZM236.78 14.88V15.98H240.96V14.88H236.78ZM236.78 12.3V13.36H240.96V12.3H236.78ZM235.06 10.68H242.74V17.58H235.06V10.68ZM238.04 11.52H239.72V16.78H238.04V11.52ZM238.06 21.56L239.46 20.18C239.847 20.4333 240.253 20.72 240.68 21.04C241.107 21.36 241.5 21.6867 241.86 22.02C242.233 22.34 242.533 22.64 242.76 22.92L241.28 24.44C241.08 24.16 240.793 23.8467 240.42 23.5C240.06 23.1667 239.673 22.8333 239.26 22.5C238.86 22.1533 238.46 21.84 238.06 21.56ZM239.56 7.58H240.06L240.4 7.48L241.9 8.42C241.767 8.79333 241.6 9.2 241.4 9.64C241.2 10.08 241 10.5067 240.8 10.92C240.6 11.32 240.413 11.68 240.24 12C240.027 11.84 239.76 11.6667 239.44 11.48C239.12 11.28 238.833 11.12 238.58 11C238.713 10.72 238.84 10.4 238.96 10.04C239.08 9.66667 239.193 9.3 239.3 8.94C239.42 8.56667 239.507 8.24 239.56 7.96V7.58ZM237.82 17.3H239.94C239.9 18.2467 239.807 19.1133 239.66 19.9C239.527 20.6733 239.307 21.3733 239 22C238.693 22.6133 238.253 23.1533 237.68 23.62C237.107 24.1 236.36 24.5067 235.44 24.84C235.347 24.5867 235.18 24.2867 234.94 23.94C234.7 23.6067 234.467 23.3467 234.24 23.16C235.013 22.8933 235.627 22.5867 236.08 22.24C236.547 21.88 236.893 21.46 237.12 20.98C237.36 20.5 237.527 19.96 237.62 19.36C237.727 18.7467 237.793 18.06 237.82 17.3ZM232.5 6L234.64 6.8C234.107 7.66667 233.447 8.54 232.66 9.42C231.887 10.3 231.12 11.0467 230.36 11.66C230.28 11.5 230.167 11.3067 230.02 11.08C229.873 10.84 229.727 10.6067 229.58 10.38C229.433 10.1533 229.293 9.96667 229.16 9.82C229.587 9.48667 230.007 9.10667 230.42 8.68C230.847 8.24 231.24 7.78667 231.6 7.32C231.973 6.85333 232.273 6.41333 232.5 6ZM232.82 10.22L234.88 10.96C234.507 11.76 234.067 12.58 233.56 13.42C233.053 14.2467 232.52 15.04 231.96 15.8C231.4 16.5467 230.847 17.2 230.3 17.76C230.233 17.5867 230.12 17.36 229.96 17.08C229.813 16.8 229.653 16.52 229.48 16.24C229.307 15.96 229.153 15.74 229.02 15.58C229.727 14.9133 230.42 14.1 231.1 13.14C231.793 12.18 232.367 11.2067 232.82 10.22ZM231.44 14.6L233.62 12.42V12.44V24.8H231.44V14.6ZM243.3 7.06H247.86V9.22H243.3V7.06ZM243 12.2H248.26V14.38H243V12.2ZM244.58 13.36H246.82V22.26C246.82 22.7933 246.767 23.2267 246.66 23.56C246.567 23.8933 246.353 24.16 246.02 24.36C245.7 24.5333 245.32 24.64 244.88 24.68C244.44 24.7333 243.92 24.76 243.32 24.76C243.293 24.44 243.22 24.06 243.1 23.62C242.993 23.1933 242.867 22.82 242.72 22.5C243.053 22.5133 243.373 22.52 243.68 22.52C243.987 22.52 244.193 22.52 244.3 22.52C244.407 22.5067 244.48 22.48 244.52 22.44C244.56 22.4 244.58 22.3333 244.58 22.24V13.36ZM253.48 25.76L252.84 24.14C253.68 23.8733 254.32 23.5067 254.76 23.04C255.213 22.5867 255.44 22.0667 255.44 21.48L255.28 19.52L256.4 21.3C256.227 21.4467 256.04 21.56 255.84 21.64C255.64 21.72 255.427 21.76 255.2 21.76C254.707 21.76 254.267 21.6067 253.88 21.3C253.493 20.98 253.3 20.5333 253.3 19.96C253.3 19.4 253.493 18.96 253.88 18.64C254.267 18.32 254.727 18.16 255.26 18.16C255.967 18.16 256.5 18.4067 256.86 18.9C257.233 19.3933 257.42 20.06 257.42 20.9C257.42 22.0333 257.073 23.0333 256.38 23.9C255.687 24.7667 254.72 25.3867 253.48 25.76ZM272.52 7.96H288.32V24.36H285.7V10.4H275.02V24.4H272.52V7.96ZM273.72 20.3H287.34V22.76H273.72V20.3ZM304.76 7.14L305.94 5.8C306.42 5.96 306.927 6.16667 307.46 6.42C307.993 6.66 308.42 6.90667 308.74 7.16L307.5 8.6C307.207 8.37333 306.793 8.12 306.26 7.84C305.74 7.54667 305.24 7.31333 304.76 7.14ZM294.58 7.86H309.98V9.78H294.58V7.86ZM296.1 10.7H302.02V12.24H296.1V10.7ZM296.18 13.2H298.1V16.88H296.18V13.2ZM306.58 10.28L308.8 10.8C308.213 12.4267 307.42 13.9 306.42 15.22C305.433 16.5267 304.313 17.6 303.06 18.44C302.953 18.28 302.8 18.1 302.6 17.9C302.4 17.6867 302.193 17.48 301.98 17.28C301.767 17.0667 301.58 16.8933 301.42 16.76C302.607 16.0667 303.647 15.16 304.54 14.04C305.433 12.92 306.113 11.6667 306.58 10.28ZM301.86 6H304.12C304.16 7.38667 304.307 8.71333 304.56 9.98C304.813 11.2333 305.127 12.3467 305.5 13.32C305.887 14.2933 306.307 15.06 306.76 15.62C307.213 16.18 307.66 16.46 308.1 16.46C308.34 16.46 308.507 16.2733 308.6 15.9C308.693 15.5267 308.767 14.9133 308.82 14.06C309.073 14.2733 309.367 14.48 309.7 14.68C310.047 14.8667 310.36 15.0067 310.64 15.1C310.533 16.0467 310.373 16.7733 310.16 17.28C309.96 17.7867 309.68 18.14 309.32 18.34C308.96 18.5267 308.513 18.62 307.98 18.62C307.287 18.62 306.633 18.4 306.02 17.96C305.42 17.52 304.873 16.9067 304.38 16.12C303.9 15.32 303.48 14.3867 303.12 13.32C302.76 12.2533 302.473 11.1 302.26 9.86C302.06 8.62 301.927 7.33333 301.86 6ZM296.18 13.2H301.88V17.54H296.18V16H299.92V14.72H296.18V13.2ZM296.96 19.22H299.34V21.78C299.34 22.06 299.4 22.2333 299.52 22.3C299.653 22.3667 299.96 22.4 300.44 22.4C300.547 22.4 300.713 22.4 300.94 22.4C301.18 22.4 301.44 22.4 301.72 22.4C302.013 22.4 302.287 22.4 302.54 22.4C302.807 22.4 303.007 22.4 303.14 22.4C303.407 22.4 303.6 22.36 303.72 22.28C303.853 22.2 303.947 22.0333 304 21.78C304.067 21.5267 304.113 21.14 304.14 20.62C304.3 20.7267 304.507 20.84 304.76 20.96C305.013 21.0667 305.273 21.1667 305.54 21.26C305.807 21.34 306.047 21.4 306.26 21.44C306.167 22.2667 306.02 22.9 305.82 23.34C305.62 23.7933 305.327 24.1067 304.94 24.28C304.553 24.4533 304.033 24.54 303.38 24.54C303.26 24.54 303.093 24.54 302.88 24.54C302.667 24.54 302.427 24.54 302.16 24.54C301.893 24.54 301.627 24.54 301.36 24.54C301.093 24.54 300.853 24.54 300.64 24.54C300.427 24.54 300.267 24.54 300.16 24.54C299.293 24.54 298.627 24.4533 298.16 24.28C297.707 24.12 297.393 23.84 297.22 23.44C297.047 23.04 296.96 22.5 296.96 21.82V19.22ZM298.8 18.68L300.36 17.38C300.733 17.58 301.113 17.8133 301.5 18.08C301.9 18.3467 302.273 18.62 302.62 18.9C302.967 19.18 303.247 19.4467 303.46 19.7L301.78 21.14C301.593 20.8867 301.333 20.6133 301 20.32C300.667 20.0267 300.307 19.7333 299.92 19.44C299.547 19.1467 299.173 18.8933 298.8 18.68ZM305.38 19.9L307.38 18.9C307.82 19.3 308.253 19.74 308.68 20.22C309.107 20.7 309.493 21.1867 309.84 21.68C310.187 22.1733 310.447 22.64 310.62 23.08L308.44 24.18C308.28 23.7667 308.04 23.3133 307.72 22.82C307.413 22.3133 307.053 21.8067 306.64 21.3C306.24 20.7933 305.82 20.3267 305.38 19.9ZM294.28 19.2L296.42 19.96C296.167 20.7867 295.833 21.6 295.42 22.4C295.02 23.1867 294.473 23.8467 293.78 24.38L291.8 23.04C292.4 22.5867 292.907 22.02 293.32 21.34C293.733 20.66 294.053 19.9467 294.28 19.2ZM293.44 7.86H295.66V10.94C295.66 11.5533 295.627 12.22 295.56 12.94C295.493 13.66 295.38 14.3933 295.22 15.14C295.06 15.8733 294.827 16.5933 294.52 17.3C294.227 17.9933 293.84 18.6267 293.36 19.2C293.253 19.0533 293.087 18.88 292.86 18.68C292.647 18.48 292.42 18.2933 292.18 18.12C291.953 17.9333 291.767 17.8067 291.62 17.74C292.18 17.06 292.587 16.32 292.84 15.52C293.093 14.72 293.253 13.92 293.32 13.12C293.4 12.3067 293.44 11.5667 293.44 10.9V7.86ZM320.98 17.5H327.78V19.2H320.98V17.5ZM320.98 20.04H327.78V21.76H320.98V20.04ZM319.92 14.84H327.8V16.68H322.12V24.8H319.92V14.84ZM323.44 9.46H327.86V10.92H325.24V12.92H323.44V9.46ZM327.02 14.84H329.26V22.68C329.26 23.1733 329.193 23.56 329.06 23.84C328.94 24.12 328.707 24.3333 328.36 24.48C328.027 24.6267 327.613 24.72 327.12 24.76C326.64 24.8 326.053 24.82 325.36 24.82C325.32 24.5267 325.233 24.2 325.1 23.84C324.98 23.4933 324.86 23.1933 324.74 22.94C325.127 22.9533 325.513 22.9667 325.9 22.98C326.3 22.98 326.56 22.98 326.68 22.98C326.8 22.98 326.887 22.96 326.94 22.92C326.993 22.8667 327.02 22.7733 327.02 22.64V14.84ZM318.06 12.06H331.22V15.82H328.94V13.9H320.26V15.82H318.06V12.06ZM319.92 6.7H329.3V12.94H327.04V8.54H322.06V12.94H319.92V6.7ZM313.72 7.86L315.02 6.1C315.433 6.26 315.867 6.45333 316.32 6.68C316.787 6.90667 317.227 7.14 317.64 7.38C318.067 7.62 318.407 7.86 318.66 8.1L317.28 10.06C317.04 9.82 316.72 9.56667 316.32 9.3C315.92 9.03333 315.487 8.77333 315.02 8.52C314.567 8.26667 314.133 8.04667 313.72 7.86ZM312.56 13.32L313.84 11.5C314.267 11.6467 314.713 11.8267 315.18 12.04C315.647 12.2533 316.093 12.48 316.52 12.72C316.947 12.96 317.293 13.1933 317.56 13.42L316.18 15.42C315.94 15.1933 315.613 14.9533 315.2 14.7C314.787 14.4333 314.347 14.18 313.88 13.94C313.427 13.7 312.987 13.4933 312.56 13.32ZM313.14 23.02C313.473 22.5 313.847 21.8933 314.26 21.2C314.673 20.4933 315.093 19.7467 315.52 18.96C315.947 18.1733 316.347 17.3867 316.72 16.6L318.54 18.1C318.207 18.8067 317.853 19.5333 317.48 20.28C317.12 21.0267 316.747 21.76 316.36 22.48C315.987 23.1867 315.613 23.8667 315.24 24.52L313.14 23.02ZM339.7 6.66H341.62V24.1H339.7V6.66ZM337.08 8.22H338.74V22.02H337.08V8.22ZM334.28 6.78H336.2V15.5C336.2 16.6867 336.167 17.8267 336.1 18.92C336.047 20.0133 335.913 21.0467 335.7 22.02C335.5 22.9933 335.173 23.9 334.72 24.74C334.613 24.5933 334.467 24.4267 334.28 24.24C334.093 24.0667 333.9 23.8933 333.7 23.72C333.5 23.56 333.32 23.4333 333.16 23.34C333.667 22.26 333.98 21.06 334.1 19.74C334.22 18.42 334.28 17 334.28 15.48V6.78ZM342.32 6.8H351.92V8.84H342.32V6.8ZM344.98 14.82V16.12H349.12V14.82H344.98ZM344.98 17.76V19.06H349.12V17.76H344.98ZM344.98 11.9V13.2H349.12V11.9H344.98ZM342.82 10.16H351.38V20.82H342.82V10.16ZM346.04 7.92L348.66 8.24C348.473 8.84 348.267 9.43333 348.04 10.02C347.827 10.6067 347.633 11.1133 347.46 11.54L345.46 11.16C345.54 10.8533 345.613 10.5133 345.68 10.14C345.76 9.75333 345.833 9.36667 345.9 8.98C345.967 8.59333 346.013 8.24 346.04 7.92ZM344.84 20.92L346.72 22.14C346.387 22.4733 345.993 22.8067 345.54 23.14C345.1 23.4867 344.633 23.8 344.14 24.08C343.66 24.3733 343.187 24.6267 342.72 24.84C342.56 24.6133 342.34 24.3533 342.06 24.06C341.78 23.7667 341.527 23.52 341.3 23.32C341.727 23.12 342.167 22.8867 342.62 22.62C343.073 22.3533 343.493 22.0733 343.88 21.78C344.267 21.4733 344.587 21.1867 344.84 20.92ZM347.52 22.16L349.28 21C349.627 21.24 350 21.5133 350.4 21.82C350.813 22.1133 351.207 22.4067 351.58 22.7C351.953 22.9933 352.267 23.2667 352.52 23.52L350.64 24.82C350.44 24.5667 350.16 24.28 349.8 23.96C349.44 23.6533 349.06 23.34 348.66 23.02C348.26 22.7 347.88 22.4133 347.52 22.16Z" fill="black"/>
<path d="M115.408 46.28H121.392V47.576H115.408V46.28ZM122.208 47.464H127.072V49.16H122.208V47.464ZM114.864 48.36H121.84V49.688H114.864V48.36ZM117.552 45.432H119.248V49.032H117.552V45.432ZM117.552 51.64H119.248V55.528H117.552V51.64ZM115.2 52.52H121.44V53.864H115.2V52.52ZM114.736 55.032C115.333 55 116.016 54.9573 116.784 54.904C117.563 54.84 118.379 54.7707 119.232 54.696C120.096 54.6213 120.96 54.5467 121.824 54.472L121.84 55.912C121.008 55.9867 120.176 56.0667 119.344 56.152C118.512 56.2373 117.712 56.3173 116.944 56.392C116.187 56.4667 115.493 56.536 114.864 56.6L114.736 55.032ZM118.736 49.192H120.08V50.344C120.08 50.4933 120.091 50.584 120.112 50.616C120.133 50.648 120.187 50.664 120.272 50.664C120.304 50.664 120.341 50.664 120.384 50.664C120.437 50.664 120.485 50.664 120.528 50.664C120.581 50.664 120.619 50.664 120.64 50.664C120.736 50.664 120.8 50.6267 120.832 50.552C120.875 50.4667 120.901 50.2587 120.912 49.928C121.04 50.0133 121.221 50.0987 121.456 50.184C121.691 50.2693 121.893 50.3387 122.064 50.392C122 50.9573 121.872 51.3413 121.68 51.544C121.499 51.736 121.216 51.832 120.832 51.832C120.768 51.832 120.688 51.832 120.592 51.832C120.496 51.832 120.395 51.832 120.288 51.832C120.192 51.832 120.112 51.832 120.048 51.832C119.504 51.832 119.147 51.7253 118.976 51.512C118.816 51.2987 118.736 50.9147 118.736 50.36V49.192ZM123.632 45.4H125.36C125.349 46.7227 125.312 47.9547 125.248 49.096C125.195 50.2267 125.077 51.2667 124.896 52.216C124.725 53.1547 124.448 53.9973 124.064 54.744C123.691 55.4907 123.173 56.1467 122.512 56.712C122.395 56.5093 122.219 56.2853 121.984 56.04C121.76 55.784 121.552 55.5867 121.36 55.448C121.925 54.968 122.363 54.3973 122.672 53.736C122.981 53.0747 123.2 52.328 123.328 51.496C123.456 50.664 123.536 49.7413 123.568 48.728C123.6 47.7147 123.621 46.6053 123.632 45.4ZM121.872 51.48L122.64 50.072C123.056 50.3067 123.499 50.5787 123.968 50.888C124.448 51.1867 124.896 51.4907 125.312 51.8C125.739 52.1093 126.08 52.3973 126.336 52.664L125.52 54.296C125.275 54.008 124.944 53.6987 124.528 53.368C124.112 53.0373 123.669 52.7067 123.2 52.376C122.741 52.0453 122.299 51.7467 121.872 51.48ZM126.16 47.464H127.888V54.152C127.888 54.3333 127.888 54.4773 127.888 54.584C127.899 54.68 127.909 54.744 127.92 54.776C127.941 54.8293 127.989 54.856 128.064 54.856C128.096 54.856 128.128 54.856 128.16 54.856C128.203 54.856 128.235 54.856 128.256 54.856C128.331 54.856 128.389 54.8347 128.432 54.792C128.475 54.728 128.507 54.5627 128.528 54.296C128.549 54.136 128.56 53.9013 128.56 53.592C128.571 53.2827 128.576 52.9147 128.576 52.488C128.736 52.6267 128.923 52.7547 129.136 52.872C129.349 52.9787 129.557 53.064 129.76 53.128C129.76 53.4053 129.749 53.688 129.728 53.976C129.717 54.264 129.696 54.5307 129.664 54.776C129.643 55.0107 129.621 55.192 129.6 55.32C129.515 55.6827 129.355 55.9547 129.12 56.136C129.013 56.2213 128.885 56.2853 128.736 56.328C128.587 56.36 128.432 56.376 128.272 56.376C128.155 56.376 128.032 56.376 127.904 56.376C127.776 56.376 127.659 56.376 127.552 56.376C127.371 56.376 127.184 56.344 126.992 56.28C126.811 56.216 126.656 56.12 126.528 55.992C126.4 55.8533 126.304 55.6667 126.24 55.432C126.187 55.1973 126.16 54.7867 126.16 54.2V47.464ZM119.232 57.448L121.024 57.256C121.131 57.7147 121.216 58.2107 121.28 58.744C121.355 59.2667 121.397 59.704 121.408 60.056L119.504 60.312C119.504 59.9387 119.483 59.4853 119.44 58.952C119.397 58.408 119.328 57.9067 119.232 57.448ZM122.448 57.432L124.256 57.128C124.437 57.576 124.613 58.0613 124.784 58.584C124.955 59.1067 125.067 59.5493 125.12 59.912L123.2 60.28C123.157 59.9067 123.061 59.4533 122.912 58.92C122.773 58.376 122.619 57.88 122.448 57.432ZM125.648 57.384L127.504 56.84C127.739 57.1387 127.979 57.4693 128.224 57.832C128.48 58.184 128.72 58.536 128.944 58.888C129.168 59.2293 129.344 59.544 129.472 59.832L127.488 60.456C127.381 60.1893 127.227 59.8747 127.024 59.512C126.821 59.16 126.597 58.7973 126.352 58.424C126.117 58.0507 125.883 57.704 125.648 57.384ZM116.448 56.888L118.304 57.368C118.101 57.9227 117.829 58.4773 117.488 59.032C117.157 59.5867 116.795 60.056 116.4 60.44L114.576 59.704C114.939 59.384 115.291 58.968 115.632 58.456C115.973 57.944 116.245 57.4213 116.448 56.888ZM116.528 49.272H117.968C117.925 49.7947 117.824 50.248 117.664 50.632C117.515 51.016 117.253 51.3413 116.88 51.608C116.517 51.8747 115.989 52.088 115.296 52.248C115.243 52.0773 115.136 51.88 114.976 51.656C114.827 51.4213 114.677 51.24 114.528 51.112C115.061 51.016 115.467 50.8933 115.744 50.744C116.021 50.584 116.213 50.3867 116.32 50.152C116.427 49.9067 116.496 49.6133 116.528 49.272ZM143.168 45.368L144.56 46.968C143.739 47.1813 142.843 47.368 141.872 47.528C140.912 47.6773 139.915 47.8107 138.88 47.928C137.845 48.0347 136.805 48.1253 135.76 48.2C134.715 48.264 133.707 48.312 132.736 48.344C132.704 48.0987 132.64 47.8107 132.544 47.48C132.448 47.1387 132.352 46.8613 132.256 46.648C133.216 46.616 134.197 46.5627 135.2 46.488C136.213 46.4133 137.2 46.3227 138.16 46.216C139.131 46.1093 140.043 45.9867 140.896 45.848C141.749 45.7093 142.507 45.5493 143.168 45.368ZM132.416 49.912H145.056V51.752H132.416V49.912ZM131.312 53.64H146.016V55.528H131.312V53.64ZM137.664 47.64H139.664V58.136C139.664 58.712 139.584 59.1387 139.424 59.416C139.275 59.704 139.003 59.928 138.608 60.088C138.235 60.2267 137.749 60.3173 137.152 60.36C136.565 60.4027 135.861 60.4187 135.04 60.408C135.008 60.2267 134.944 60.0187 134.848 59.784C134.763 59.56 134.667 59.3307 134.56 59.096C134.453 58.872 134.352 58.6747 134.256 58.504C134.661 58.5147 135.061 58.5253 135.456 58.536C135.851 58.5467 136.203 58.552 136.512 58.552C136.821 58.552 137.04 58.552 137.168 58.552C137.349 58.5413 137.477 58.504 137.552 58.44C137.627 58.376 137.664 58.264 137.664 58.104V47.64ZM152.88 48.488H162.496V56.04H160.608V50.344H154.672V56.168H152.88V48.488ZM156.64 45.48H158.576V60.392H156.64V45.48ZM153.824 53.4H161.44V55.256H153.824V53.4ZM148.704 46.888L149.744 45.464C150.096 45.592 150.464 45.752 150.848 45.944C151.232 46.1253 151.595 46.3173 151.936 46.52C152.288 46.7227 152.576 46.92 152.8 47.112L151.68 48.68C151.477 48.488 151.205 48.2853 150.864 48.072C150.533 47.848 150.176 47.6347 149.792 47.432C149.408 47.2187 149.045 47.0373 148.704 46.888ZM147.744 51.224L148.752 49.784C149.093 49.9013 149.461 50.0507 149.856 50.232C150.251 50.4027 150.624 50.584 150.976 50.776C151.339 50.968 151.632 51.1547 151.856 51.336L150.768 52.936C150.565 52.744 150.293 52.5467 149.952 52.344C149.611 52.1307 149.243 51.928 148.848 51.736C148.464 51.544 148.096 51.3733 147.744 51.224ZM148.304 58.968C148.581 58.5627 148.885 58.088 149.216 57.544C149.557 56.9893 149.904 56.4027 150.256 55.784C150.608 55.1547 150.939 54.536 151.248 53.928L152.672 55.176C152.405 55.7307 152.117 56.3013 151.808 56.888C151.509 57.464 151.2 58.0347 150.88 58.6C150.571 59.1653 150.261 59.7093 149.952 60.232L148.304 58.968ZM171.92 50.744C171.493 50.744 171.131 50.6 170.832 50.312C170.544 50.024 170.4 49.672 170.4 49.256C170.4 48.808 170.544 48.4453 170.832 48.168C171.131 47.88 171.493 47.736 171.92 47.736C172.347 47.736 172.704 47.88 172.992 48.168C173.291 48.4453 173.44 48.808 173.44 49.256C173.44 49.672 173.291 50.024 172.992 50.312C172.704 50.6 172.347 50.744 171.92 50.744ZM171.92 58.376C171.493 58.376 171.131 58.232 170.832 57.944C170.544 57.656 170.4 57.304 170.4 56.888C170.4 56.44 170.544 56.0773 170.832 55.8C171.131 55.512 171.493 55.368 171.92 55.368C172.347 55.368 172.704 55.512 172.992 55.8C173.291 56.0773 173.44 56.44 173.44 56.888C173.44 57.304 173.291 57.656 172.992 57.944C172.704 58.232 172.347 58.376 171.92 58.376ZM185.344 60.4545V45.9091H186.276V60.4545H185.344ZM188.032 50.5625C187.979 50.0663 187.755 49.6799 187.361 49.4034C186.971 49.1269 186.463 48.9886 185.838 48.9886C185.399 48.9886 185.022 49.0549 184.708 49.1875C184.393 49.3201 184.153 49.5 183.986 49.7273C183.819 49.9545 183.734 50.214 183.73 50.5057C183.73 50.7481 183.785 50.9583 183.895 51.1364C184.009 51.3144 184.162 51.4659 184.355 51.5909C184.549 51.7121 184.763 51.8144 184.997 51.8977C185.232 51.9811 185.469 52.0511 185.708 52.108L186.799 52.3807C187.238 52.483 187.66 52.6212 188.066 52.7955C188.475 52.9697 188.84 53.1894 189.162 53.4545C189.488 53.7197 189.746 54.0398 189.935 54.4148C190.124 54.7898 190.219 55.2292 190.219 55.733C190.219 56.4148 190.045 57.0152 189.696 57.5341C189.348 58.0492 188.844 58.4527 188.185 58.7443C187.53 59.0322 186.736 59.1761 185.804 59.1761C184.899 59.1761 184.113 59.036 183.446 58.7557C182.783 58.4754 182.265 58.0663 181.89 57.5284C181.518 56.9905 181.318 56.3352 181.287 55.5625H183.361C183.391 55.9678 183.516 56.3049 183.736 56.5739C183.956 56.8428 184.242 57.0436 184.594 57.1761C184.95 57.3087 185.348 57.375 185.787 57.375C186.246 57.375 186.647 57.3068 186.992 57.1705C187.34 57.0303 187.613 56.8371 187.81 56.5909C188.007 56.3409 188.107 56.0492 188.111 55.7159C188.107 55.4129 188.018 55.1629 187.844 54.9659C187.67 54.7652 187.426 54.5985 187.111 54.4659C186.801 54.3295 186.437 54.2083 186.02 54.1023L184.696 53.7614C183.738 53.5152 182.98 53.142 182.424 52.642C181.871 52.1383 181.594 51.4697 181.594 50.6364C181.594 49.9508 181.78 49.3504 182.151 48.8352C182.526 48.3201 183.035 47.9205 183.679 47.6364C184.323 47.3485 185.052 47.2045 185.867 47.2045C186.693 47.2045 187.416 47.3485 188.037 47.6364C188.662 47.9205 189.153 48.3163 189.509 48.8239C189.865 49.3277 190.049 49.9072 190.06 50.5625H188.032ZM201.966 47.3636V59H199.858V49.4148H199.79L197.069 51.1534V49.2216L199.961 47.3636H201.966ZM205.561 59V57.4773L209.601 53.517C209.987 53.1269 210.309 52.7803 210.567 52.4773C210.824 52.1742 211.017 51.8807 211.146 51.5966C211.275 51.3125 211.339 51.0095 211.339 50.6875C211.339 50.3201 211.256 50.0057 211.089 49.7443C210.923 49.4792 210.694 49.2746 210.402 49.1307C210.11 48.9867 209.779 48.9148 209.408 48.9148C209.025 48.9148 208.69 48.9943 208.402 49.1534C208.114 49.3087 207.891 49.5303 207.731 49.8182C207.576 50.1061 207.498 50.4489 207.498 50.8466H205.493C205.493 50.108 205.661 49.4659 205.998 48.9205C206.336 48.375 206.8 47.9527 207.391 47.6534C207.985 47.3542 208.667 47.2045 209.436 47.2045C210.216 47.2045 210.902 47.3504 211.493 47.642C212.084 47.9337 212.542 48.3333 212.868 48.8409C213.197 49.3485 213.362 49.928 213.362 50.5795C213.362 51.0152 213.279 51.4432 213.112 51.8636C212.945 52.2841 212.652 52.75 212.231 53.2614C211.815 53.7727 211.23 54.392 210.476 55.1193L208.47 57.1591V57.2386H213.538V59H205.561ZM220.44 59.2216C219.504 59.2216 218.701 58.9848 218.031 58.5114C217.364 58.0341 216.851 57.3466 216.491 56.4489C216.135 55.5473 215.957 54.4621 215.957 53.1932C215.96 51.9242 216.14 50.8447 216.496 49.9545C216.856 49.0606 217.37 48.3788 218.036 47.9091C218.707 47.4394 219.508 47.2045 220.44 47.2045C221.371 47.2045 222.173 47.4394 222.843 47.9091C223.513 48.3788 224.027 49.0606 224.383 49.9545C224.743 50.8485 224.923 51.928 224.923 53.1932C224.923 54.4659 224.743 55.553 224.383 56.4545C224.027 57.3523 223.513 58.0379 222.843 58.5114C222.176 58.9848 221.375 59.2216 220.44 59.2216ZM220.44 57.4432C221.167 57.4432 221.741 57.0852 222.161 56.3693C222.585 55.6496 222.798 54.5909 222.798 53.1932C222.798 52.2689 222.701 51.4924 222.508 50.8636C222.315 50.2348 222.042 49.7614 221.69 49.4432C221.337 49.1212 220.921 48.9602 220.44 48.9602C219.716 48.9602 219.144 49.3201 218.724 50.0398C218.303 50.7557 218.091 51.8068 218.087 53.1932C218.084 54.1212 218.176 54.9015 218.366 55.5341C218.559 56.1667 218.832 56.6439 219.184 56.9659C219.536 57.2841 219.955 57.4432 220.44 57.4432ZM118.368 75.336H121.376V77.208H118.368V75.336ZM122.992 71.416H124.96V84.056C124.96 84.5573 124.901 84.952 124.784 85.24C124.677 85.5387 124.475 85.7733 124.176 85.944C123.877 86.104 123.509 86.216 123.072 86.28C122.645 86.344 122.139 86.376 121.552 86.376C121.531 86.1947 121.477 85.976 121.392 85.72C121.307 85.4747 121.211 85.2293 121.104 84.984C120.997 84.7387 120.891 84.5307 120.784 84.36C121.189 84.3707 121.563 84.3813 121.904 84.392C122.256 84.392 122.501 84.392 122.64 84.392C122.768 84.392 122.859 84.3707 122.912 84.328C122.965 84.2747 122.992 84.184 122.992 84.056V71.416ZM120.912 75.336H121.248L121.568 75.288L122.72 75.576C122.56 76.984 122.309 78.2693 121.968 79.432C121.627 80.584 121.189 81.6027 120.656 82.488C120.123 83.3733 119.483 84.1147 118.736 84.712C118.661 84.552 118.549 84.376 118.4 84.184C118.261 83.9813 118.112 83.784 117.952 83.592C117.803 83.4 117.659 83.24 117.52 83.112C118.139 82.6747 118.677 82.0773 119.136 81.32C119.605 80.552 119.989 79.6827 120.288 78.712C120.587 77.7413 120.795 76.7227 120.912 75.656V75.336ZM124.896 74.04C125.131 75.32 125.456 76.536 125.872 77.688C126.288 78.84 126.821 79.864 127.472 80.76C128.123 81.656 128.917 82.3707 129.856 82.904C129.717 83.032 129.557 83.1973 129.376 83.4C129.205 83.592 129.04 83.7947 128.88 84.008C128.72 84.2213 128.592 84.4187 128.496 84.6C127.568 83.928 126.795 83.0693 126.176 82.024C125.557 80.968 125.056 79.7787 124.672 78.456C124.299 77.1227 123.995 75.7147 123.76 74.232L124.896 74.04ZM127.664 74.344L129.344 75.336C129.013 75.7627 128.656 76.1947 128.272 76.632C127.888 77.0587 127.504 77.4693 127.12 77.864C126.736 78.248 126.373 78.5893 126.032 78.888L124.576 77.944C124.907 77.6347 125.264 77.2773 125.648 76.872C126.032 76.4667 126.4 76.0453 126.752 75.608C127.104 75.16 127.408 74.7387 127.664 74.344ZM114.496 73.944L115.616 72.52C115.936 72.6907 116.288 72.8933 116.672 73.128C117.056 73.352 117.424 73.5813 117.776 73.816C118.128 74.0507 118.411 74.2693 118.624 74.472L117.456 76.072C117.253 75.8693 116.981 75.64 116.64 75.384C116.309 75.128 115.952 74.872 115.568 74.616C115.184 74.36 114.827 74.136 114.496 73.944ZM114.48 83.208C114.725 82.8347 115.003 82.392 115.312 81.88C115.621 81.368 115.931 80.8293 116.24 80.264C116.56 79.688 116.853 79.112 117.12 78.536L118.576 79.72C118.331 80.2427 118.069 80.7707 117.792 81.304C117.525 81.8373 117.253 82.3653 116.976 82.888C116.699 83.4107 116.416 83.9067 116.128 84.376L114.48 83.208ZM143.168 71.368L144.56 72.968C143.739 73.1813 142.843 73.368 141.872 73.528C140.912 73.6773 139.915 73.8107 138.88 73.928C137.845 74.0347 136.805 74.1253 135.76 74.2C134.715 74.264 133.707 74.312 132.736 74.344C132.704 74.0987 132.64 73.8107 132.544 73.48C132.448 73.1387 132.352 72.8613 132.256 72.648C133.216 72.616 134.197 72.5627 135.2 72.488C136.213 72.4133 137.2 72.3227 138.16 72.216C139.131 72.1093 140.043 71.9867 140.896 71.848C141.749 71.7093 142.507 71.5493 143.168 71.368ZM132.416 75.912H145.056V77.752H132.416V75.912ZM131.312 79.64H146.016V81.528H131.312V79.64ZM137.664 73.64H139.664V84.136C139.664 84.712 139.584 85.1387 139.424 85.416C139.275 85.704 139.003 85.928 138.608 86.088C138.235 86.2267 137.749 86.3173 137.152 86.36C136.565 86.4027 135.861 86.4187 135.04 86.408C135.008 86.2267 134.944 86.0187 134.848 85.784C134.763 85.56 134.667 85.3307 134.56 85.096C134.453 84.872 134.352 84.6747 134.256 84.504C134.661 84.5147 135.061 84.5253 135.456 84.536C135.851 84.5467 136.203 84.552 136.512 84.552C136.821 84.552 137.04 84.552 137.168 84.552C137.349 84.5413 137.477 84.504 137.552 84.44C137.627 84.376 137.664 84.264 137.664 84.104V73.64ZM152.88 74.488H162.496V82.04H160.608V76.344H154.672V82.168H152.88V74.488ZM156.64 71.48H158.576V86.392H156.64V71.48ZM153.824 79.4H161.44V81.256H153.824V79.4ZM148.704 72.888L149.744 71.464C150.096 71.592 150.464 71.752 150.848 71.944C151.232 72.1253 151.595 72.3173 151.936 72.52C152.288 72.7227 152.576 72.92 152.8 73.112L151.68 74.68C151.477 74.488 151.205 74.2853 150.864 74.072C150.533 73.848 150.176 73.6347 149.792 73.432C149.408 73.2187 149.045 73.0373 148.704 72.888ZM147.744 77.224L148.752 75.784C149.093 75.9013 149.461 76.0507 149.856 76.232C150.251 76.4027 150.624 76.584 150.976 76.776C151.339 76.968 151.632 77.1547 151.856 77.336L150.768 78.936C150.565 78.744 150.293 78.5467 149.952 78.344C149.611 78.1307 149.243 77.928 148.848 77.736C148.464 77.544 148.096 77.3733 147.744 77.224ZM148.304 84.968C148.581 84.5627 148.885 84.088 149.216 83.544C149.557 82.9893 149.904 82.4027 150.256 81.784C150.608 81.1547 150.939 80.536 151.248 79.928L152.672 81.176C152.405 81.7307 152.117 82.3013 151.808 82.888C151.509 83.464 151.2 84.0347 150.88 84.6C150.571 85.1653 150.261 85.7093 149.952 86.232L148.304 84.968ZM171.92 76.744C171.493 76.744 171.131 76.6 170.832 76.312C170.544 76.024 170.4 75.672 170.4 75.256C170.4 74.808 170.544 74.4453 170.832 74.168C171.131 73.88 171.493 73.736 171.92 73.736C172.347 73.736 172.704 73.88 172.992 74.168C173.291 74.4453 173.44 74.808 173.44 75.256C173.44 75.672 173.291 76.024 172.992 76.312C172.704 76.6 172.347 76.744 171.92 76.744ZM171.92 84.376C171.493 84.376 171.131 84.232 170.832 83.944C170.544 83.656 170.4 83.304 170.4 82.888C170.4 82.44 170.544 82.0773 170.832 81.8C171.131 81.512 171.493 81.368 171.92 81.368C172.347 81.368 172.704 81.512 172.992 81.8C173.291 82.0773 173.44 82.44 173.44 82.888C173.44 83.304 173.291 83.656 172.992 83.944C172.704 84.232 172.347 84.376 171.92 84.376ZM185.344 86.4545V71.9091H186.276V86.4545H185.344ZM188.032 76.5625C187.979 76.0663 187.755 75.6799 187.361 75.4034C186.971 75.1269 186.463 74.9886 185.838 74.9886C185.399 74.9886 185.022 75.0549 184.708 75.1875C184.393 75.3201 184.153 75.5 183.986 75.7273C183.819 75.9545 183.734 76.214 183.73 76.5057C183.73 76.7481 183.785 76.9583 183.895 77.1364C184.009 77.3144 184.162 77.4659 184.355 77.5909C184.549 77.7121 184.763 77.8144 184.997 77.8977C185.232 77.9811 185.469 78.0511 185.708 78.108L186.799 78.3807C187.238 78.483 187.66 78.6212 188.066 78.7955C188.475 78.9697 188.84 79.1894 189.162 79.4545C189.488 79.7197 189.746 80.0398 189.935 80.4148C190.124 80.7898 190.219 81.2292 190.219 81.733C190.219 82.4148 190.045 83.0152 189.696 83.5341C189.348 84.0492 188.844 84.4527 188.185 84.7443C187.53 85.0322 186.736 85.1761 185.804 85.1761C184.899 85.1761 184.113 85.036 183.446 84.7557C182.783 84.4754 182.265 84.0663 181.89 83.5284C181.518 82.9905 181.318 82.3352 181.287 81.5625H183.361C183.391 81.9678 183.516 82.3049 183.736 82.5739C183.956 82.8428 184.242 83.0436 184.594 83.1761C184.95 83.3087 185.348 83.375 185.787 83.375C186.246 83.375 186.647 83.3068 186.992 83.1705C187.34 83.0303 187.613 82.8371 187.81 82.5909C188.007 82.3409 188.107 82.0492 188.111 81.7159C188.107 81.4129 188.018 81.1629 187.844 80.9659C187.67 80.7652 187.426 80.5985 187.111 80.4659C186.801 80.3295 186.437 80.2083 186.02 80.1023L184.696 79.7614C183.738 79.5152 182.98 79.142 182.424 78.642C181.871 78.1383 181.594 77.4697 181.594 76.6364C181.594 75.9508 181.78 75.3504 182.151 74.8352C182.526 74.3201 183.035 73.9205 183.679 73.6364C184.323 73.3485 185.052 73.2045 185.867 73.2045C186.693 73.2045 187.416 73.3485 188.037 73.6364C188.662 73.9205 189.153 74.3163 189.509 74.8239C189.865 75.3277 190.049 75.9072 190.06 76.5625H188.032ZM201.966 73.3636V85H199.858V75.4148H199.79L197.069 77.1534V75.2216L199.961 73.3636H201.966ZM209.737 85.1591C208.919 85.1591 208.192 85.0189 207.555 84.7386C206.923 84.4583 206.423 84.0682 206.055 83.5682C205.688 83.0682 205.493 82.4905 205.47 81.8352H207.606C207.625 82.1496 207.73 82.4242 207.919 82.6591C208.108 82.8902 208.36 83.0701 208.675 83.1989C208.989 83.3277 209.341 83.392 209.731 83.392C210.148 83.392 210.517 83.3201 210.839 83.1761C211.161 83.0284 211.413 82.8239 211.595 82.5625C211.777 82.3011 211.866 82 211.862 81.6591C211.866 81.3068 211.775 80.9962 211.589 80.7273C211.404 80.4583 211.135 80.2481 210.783 80.0966C210.434 79.9451 210.014 79.8693 209.521 79.8693H208.493V78.2443H209.521C209.926 78.2443 210.281 78.1742 210.584 78.0341C210.891 77.8939 211.131 77.697 211.305 77.4432C211.48 77.1856 211.565 76.8883 211.561 76.5511C211.565 76.2216 211.491 75.9356 211.339 75.6932C211.192 75.447 210.981 75.2557 210.709 75.1193C210.44 74.983 210.123 74.9148 209.76 74.9148C209.404 74.9148 209.074 74.9792 208.771 75.108C208.468 75.2367 208.224 75.4205 208.038 75.6591C207.853 75.8939 207.754 76.1742 207.743 76.5H205.714C205.73 75.8485 205.917 75.2765 206.277 74.7841C206.641 74.2879 207.125 73.9015 207.731 73.625C208.337 73.3447 209.017 73.2045 209.771 73.2045C210.548 73.2045 211.222 73.3504 211.794 73.642C212.37 73.9299 212.815 74.3182 213.129 74.8068C213.444 75.2955 213.601 75.8352 213.601 76.4261C213.605 77.0814 213.411 77.6307 213.021 78.0739C212.635 78.517 212.127 78.8068 211.498 78.9432V79.0341C212.317 79.1477 212.944 79.4508 213.379 79.9432C213.819 80.4318 214.036 81.0398 214.033 81.767C214.033 82.4186 213.847 83.0019 213.476 83.517C213.108 84.0284 212.601 84.4299 211.953 84.7216C211.309 85.0133 210.57 85.1591 209.737 85.1591ZM220.924 85.2216C219.988 85.2216 219.185 84.9848 218.515 84.5114C217.848 84.0341 217.335 83.3466 216.975 82.4489C216.619 81.5473 216.441 80.4621 216.441 79.1932C216.445 77.9242 216.625 76.8447 216.981 75.9545C217.341 75.0606 217.854 74.3788 218.521 73.9091C219.191 73.4394 219.992 73.2045 220.924 73.2045C221.856 73.2045 222.657 73.4394 223.327 73.9091C223.998 74.3788 224.511 75.0606 224.867 75.9545C225.227 76.8485 225.407 77.928 225.407 79.1932C225.407 80.4659 225.227 81.553 224.867 82.4545C224.511 83.3523 223.998 84.0379 223.327 84.5114C222.661 84.9848 221.86 85.2216 220.924 85.2216ZM220.924 83.4432C221.651 83.4432 222.225 83.0852 222.646 82.3693C223.07 81.6496 223.282 80.5909 223.282 79.1932C223.282 78.2689 223.185 77.4924 222.992 76.8636C222.799 76.2348 222.526 75.7614 222.174 75.4432C221.822 75.1212 221.405 74.9602 220.924 74.9602C220.2 74.9602 219.629 75.3201 219.208 76.0398C218.788 76.7557 218.575 77.8068 218.572 79.1932C218.568 80.1212 218.661 80.9015 218.85 81.5341C219.043 82.1667 219.316 82.6439 219.668 82.9659C220.021 83.2841 220.439 83.4432 220.924 83.4432ZM115.408 98.28H121.392V99.576H115.408V98.28ZM122.208 99.464H127.072V101.16H122.208V99.464ZM114.864 100.36H121.84V101.688H114.864V100.36ZM117.552 97.432H119.248V101.032H117.552V97.432ZM117.552 103.64H119.248V107.528H117.552V103.64ZM115.2 104.52H121.44V105.864H115.2V104.52ZM114.736 107.032C115.333 107 116.016 106.957 116.784 106.904C117.563 106.84 118.379 106.771 119.232 106.696C120.096 106.621 120.96 106.547 121.824 106.472L121.84 107.912C121.008 107.987 120.176 108.067 119.344 108.152C118.512 108.237 117.712 108.317 116.944 108.392C116.187 108.467 115.493 108.536 114.864 108.6L114.736 107.032ZM118.736 101.192H120.08V102.344C120.08 102.493 120.091 102.584 120.112 102.616C120.133 102.648 120.187 102.664 120.272 102.664C120.304 102.664 120.341 102.664 120.384 102.664C120.437 102.664 120.485 102.664 120.528 102.664C120.581 102.664 120.619 102.664 120.64 102.664C120.736 102.664 120.8 102.627 120.832 102.552C120.875 102.467 120.901 102.259 120.912 101.928C121.04 102.013 121.221 102.099 121.456 102.184C121.691 102.269 121.893 102.339 122.064 102.392C122 102.957 121.872 103.341 121.68 103.544C121.499 103.736 121.216 103.832 120.832 103.832C120.768 103.832 120.688 103.832 120.592 103.832C120.496 103.832 120.395 103.832 120.288 103.832C120.192 103.832 120.112 103.832 120.048 103.832C119.504 103.832 119.147 103.725 118.976 103.512C118.816 103.299 118.736 102.915 118.736 102.36V101.192ZM123.632 97.4H125.36C125.349 98.7227 125.312 99.9547 125.248 101.096C125.195 102.227 125.077 103.267 124.896 104.216C124.725 105.155 124.448 105.997 124.064 106.744C123.691 107.491 123.173 108.147 122.512 108.712C122.395 108.509 122.219 108.285 121.984 108.04C121.76 107.784 121.552 107.587 121.36 107.448C121.925 106.968 122.363 106.397 122.672 105.736C122.981 105.075 123.2 104.328 123.328 103.496C123.456 102.664 123.536 101.741 123.568 100.728C123.6 99.7147 123.621 98.6053 123.632 97.4ZM121.872 103.48L122.64 102.072C123.056 102.307 123.499 102.579 123.968 102.888C124.448 103.187 124.896 103.491 125.312 103.8C125.739 104.109 126.08 104.397 126.336 104.664L125.52 106.296C125.275 106.008 124.944 105.699 124.528 105.368C124.112 105.037 123.669 104.707 123.2 104.376C122.741 104.045 122.299 103.747 121.872 103.48ZM126.16 99.464H127.888V106.152C127.888 106.333 127.888 106.477 127.888 106.584C127.899 106.68 127.909 106.744 127.92 106.776C127.941 106.829 127.989 106.856 128.064 106.856C128.096 106.856 128.128 106.856 128.16 106.856C128.203 106.856 128.235 106.856 128.256 106.856C128.331 106.856 128.389 106.835 128.432 106.792C128.475 106.728 128.507 106.563 128.528 106.296C128.549 106.136 128.56 105.901 128.56 105.592C128.571 105.283 128.576 104.915 128.576 104.488C128.736 104.627 128.923 104.755 129.136 104.872C129.349 104.979 129.557 105.064 129.76 105.128C129.76 105.405 129.749 105.688 129.728 105.976C129.717 106.264 129.696 106.531 129.664 106.776C129.643 107.011 129.621 107.192 129.6 107.32C129.515 107.683 129.355 107.955 129.12 108.136C129.013 108.221 128.885 108.285 128.736 108.328C128.587 108.36 128.432 108.376 128.272 108.376C128.155 108.376 128.032 108.376 127.904 108.376C127.776 108.376 127.659 108.376 127.552 108.376C127.371 108.376 127.184 108.344 126.992 108.28C126.811 108.216 126.656 108.12 126.528 107.992C126.4 107.853 126.304 107.667 126.24 107.432C126.187 107.197 126.16 106.787 126.16 106.2V99.464ZM119.232 109.448L121.024 109.256C121.131 109.715 121.216 110.211 121.28 110.744C121.355 111.267 121.397 111.704 121.408 112.056L119.504 112.312C119.504 111.939 119.483 111.485 119.44 110.952C119.397 110.408 119.328 109.907 119.232 109.448ZM122.448 109.432L124.256 109.128C124.437 109.576 124.613 110.061 124.784 110.584C124.955 111.107 125.067 111.549 125.12 111.912L123.2 112.28C123.157 111.907 123.061 111.453 122.912 110.92C122.773 110.376 122.619 109.88 122.448 109.432ZM125.648 109.384L127.504 108.84C127.739 109.139 127.979 109.469 128.224 109.832C128.48 110.184 128.72 110.536 128.944 110.888C129.168 111.229 129.344 111.544 129.472 111.832L127.488 112.456C127.381 112.189 127.227 111.875 127.024 111.512C126.821 111.16 126.597 110.797 126.352 110.424C126.117 110.051 125.883 109.704 125.648 109.384ZM116.448 108.888L118.304 109.368C118.101 109.923 117.829 110.477 117.488 111.032C117.157 111.587 116.795 112.056 116.4 112.44L114.576 111.704C114.939 111.384 115.291 110.968 115.632 110.456C115.973 109.944 116.245 109.421 116.448 108.888ZM116.528 101.272H117.968C117.925 101.795 117.824 102.248 117.664 102.632C117.515 103.016 117.253 103.341 116.88 103.608C116.517 103.875 115.989 104.088 115.296 104.248C115.243 104.077 115.136 103.88 114.976 103.656C114.827 103.421 114.677 103.24 114.528 103.112C115.061 103.016 115.467 102.893 115.744 102.744C116.021 102.584 116.213 102.387 116.32 102.152C116.427 101.907 116.496 101.613 116.528 101.272ZM143.168 97.368L144.56 98.968C143.739 99.1813 142.843 99.368 141.872 99.528C140.912 99.6773 139.915 99.8107 138.88 99.928C137.845 100.035 136.805 100.125 135.76 100.2C134.715 100.264 133.707 100.312 132.736 100.344C132.704 100.099 132.64 99.8107 132.544 99.48C132.448 99.1387 132.352 98.8613 132.256 98.648C133.216 98.616 134.197 98.5627 135.2 98.488C136.213 98.4133 137.2 98.3227 138.16 98.216C139.131 98.1093 140.043 97.9867 140.896 97.848C141.749 97.7093 142.507 97.5493 143.168 97.368ZM132.416 101.912H145.056V103.752H132.416V101.912ZM131.312 105.64H146.016V107.528H131.312V105.64ZM137.664 99.64H139.664V110.136C139.664 110.712 139.584 111.139 139.424 111.416C139.275 111.704 139.003 111.928 138.608 112.088C138.235 112.227 137.749 112.317 137.152 112.36C136.565 112.403 135.861 112.419 135.04 112.408C135.008 112.227 134.944 112.019 134.848 111.784C134.763 111.56 134.667 111.331 134.56 111.096C134.453 110.872 134.352 110.675 134.256 110.504C134.661 110.515 135.061 110.525 135.456 110.536C135.851 110.547 136.203 110.552 136.512 110.552C136.821 110.552 137.04 110.552 137.168 110.552C137.349 110.541 137.477 110.504 137.552 110.44C137.627 110.376 137.664 110.264 137.664 110.104V99.64ZM152.88 100.488H162.496V108.04H160.608V102.344H154.672V108.168H152.88V100.488ZM156.64 97.48H158.576V112.392H156.64V97.48ZM153.824 105.4H161.44V107.256H153.824V105.4ZM148.704 98.888L149.744 97.464C150.096 97.592 150.464 97.752 150.848 97.944C151.232 98.1253 151.595 98.3173 151.936 98.52C152.288 98.7227 152.576 98.92 152.8 99.112L151.68 100.68C151.477 100.488 151.205 100.285 150.864 100.072C150.533 99.848 150.176 99.6347 149.792 99.432C149.408 99.2187 149.045 99.0373 148.704 98.888ZM147.744 103.224L148.752 101.784C149.093 101.901 149.461 102.051 149.856 102.232C150.251 102.403 150.624 102.584 150.976 102.776C151.339 102.968 151.632 103.155 151.856 103.336L150.768 104.936C150.565 104.744 150.293 104.547 149.952 104.344C149.611 104.131 149.243 103.928 148.848 103.736C148.464 103.544 148.096 103.373 147.744 103.224ZM148.304 110.968C148.581 110.563 148.885 110.088 149.216 109.544C149.557 108.989 149.904 108.403 150.256 107.784C150.608 107.155 150.939 106.536 151.248 105.928L152.672 107.176C152.405 107.731 152.117 108.301 151.808 108.888C151.509 109.464 151.2 110.035 150.88 110.6C150.571 111.165 150.261 111.709 149.952 112.232L148.304 110.968ZM165.856 109.288H172.624V110.92H165.856V109.288ZM164.976 98.056H172.528V99.656H166.608V111.992H164.976V98.056ZM169.12 101.448V102.856H170.288V101.448H169.12ZM167.744 100.328H171.744V103.976H167.744V100.328ZM167.952 105.752V107.48H168.56V105.752H167.952ZM167.056 104.616H169.488V108.6H167.056V104.616ZM170.848 105.752V107.48H171.52V105.752H170.848ZM169.936 104.616H172.48V108.6H169.936V104.616ZM173.728 100.296H178.208V102.04H173.728V100.296ZM175.712 100.968H176.608V103.736C176.608 104.045 176.629 104.424 176.672 104.872C176.725 105.309 176.811 105.789 176.928 106.312C177.056 106.835 177.227 107.363 177.44 107.896C177.664 108.429 177.947 108.947 178.288 109.448C178.629 109.939 179.04 110.381 179.52 110.776C179.413 110.904 179.285 111.069 179.136 111.272C178.987 111.475 178.843 111.677 178.704 111.88C178.576 112.083 178.464 112.264 178.368 112.424C177.941 112.083 177.568 111.672 177.248 111.192C176.928 110.723 176.661 110.227 176.448 109.704C176.235 109.181 176.069 108.685 175.952 108.216C175.835 107.736 175.749 107.325 175.696 106.984C175.653 107.336 175.557 107.752 175.408 108.232C175.269 108.701 175.077 109.192 174.832 109.704C174.587 110.205 174.283 110.696 173.92 111.176C173.568 111.656 173.157 112.072 172.688 112.424C172.613 112.285 172.512 112.115 172.384 111.912C172.267 111.709 172.139 111.507 172 111.304C171.861 111.112 171.739 110.957 171.632 110.84C172.165 110.445 172.613 109.997 172.976 109.496C173.349 108.995 173.653 108.477 173.888 107.944C174.123 107.4 174.304 106.867 174.432 106.344C174.571 105.821 174.661 105.336 174.704 104.888C174.747 104.44 174.768 104.056 174.768 103.736V100.968H175.712ZM173.616 97.384L175.488 97.64C175.371 98.6107 175.211 99.5547 175.008 100.472C174.816 101.389 174.581 102.248 174.304 103.048C174.027 103.837 173.696 104.531 173.312 105.128C173.205 105.021 173.056 104.893 172.864 104.744C172.672 104.595 172.475 104.451 172.272 104.312C172.08 104.163 171.909 104.045 171.76 103.96C172.101 103.448 172.389 102.845 172.624 102.152C172.869 101.448 173.072 100.691 173.232 99.88C173.403 99.0587 173.531 98.2267 173.616 97.384ZM177.632 100.296H177.888L178.16 100.232L179.408 100.536C179.355 101.059 179.285 101.597 179.2 102.152C179.125 102.696 179.045 103.219 178.96 103.72C178.875 104.221 178.784 104.664 178.688 105.048L177.2 104.616C177.264 104.264 177.323 103.859 177.376 103.4C177.429 102.941 177.477 102.467 177.52 101.976C177.563 101.475 177.6 101.005 177.632 100.568V100.296ZM182.736 100.616H194.416V101.864H182.736V100.616ZM184.032 104.2H187.136V105.16H184.032V104.2ZM183.504 105.64H187.136V106.6H183.504V105.64ZM183.952 108.968H193.072V110.088H183.952V108.968ZM183.952 110.792H193.072V111.992H183.952V110.792ZM189.888 105.64H193.632V106.6H189.888V105.64ZM189.888 104.2H193.024V105.16H189.888V104.2ZM187.568 101.128H189.44V106.728H187.568V101.128ZM187.6 107.624H189.408V111.784H187.6V107.624ZM181.664 102.424H195.488V105.144H193.6V103.704H183.472V105.144H181.664V102.424ZM181.408 98.216H195.744V99.72H181.408V98.216ZM184.928 97.4H186.816V100.472H184.928V97.4ZM190.24 97.4H192.16V100.472H190.24V97.4ZM182.848 107.096H194.48V112.44H192.656V108.296H184.592V112.44H182.848V107.096ZM205.2 102.744C204.773 102.744 204.411 102.6 204.112 102.312C203.824 102.024 203.68 101.672 203.68 101.256C203.68 100.808 203.824 100.445 204.112 100.168C204.411 99.88 204.773 99.736 205.2 99.736C205.627 99.736 205.984 99.88 206.272 100.168C206.571 100.445 206.72 100.808 206.72 101.256C206.72 101.672 206.571 102.024 206.272 102.312C205.984 102.6 205.627 102.744 205.2 102.744ZM205.2 110.376C204.773 110.376 204.411 110.232 204.112 109.944C203.824 109.656 203.68 109.304 203.68 108.888C203.68 108.44 203.824 108.077 204.112 107.8C204.411 107.512 204.773 107.368 205.2 107.368C205.627 107.368 205.984 107.512 206.272 107.8C206.571 108.077 206.72 108.44 206.72 108.888C206.72 109.304 206.571 109.656 206.272 109.944C205.984 110.232 205.627 110.376 205.2 110.376ZM218.624 112.455V97.9091H219.556V112.455H218.624ZM221.312 102.562C221.259 102.066 221.035 101.68 220.641 101.403C220.251 101.127 219.743 100.989 219.118 100.989C218.679 100.989 218.302 101.055 217.988 101.188C217.673 101.32 217.433 101.5 217.266 101.727C217.099 101.955 217.014 102.214 217.01 102.506C217.01 102.748 217.065 102.958 217.175 103.136C217.289 103.314 217.442 103.466 217.635 103.591C217.829 103.712 218.043 103.814 218.277 103.898C218.512 103.981 218.749 104.051 218.988 104.108L220.079 104.381C220.518 104.483 220.94 104.621 221.346 104.795C221.755 104.97 222.12 105.189 222.442 105.455C222.768 105.72 223.026 106.04 223.215 106.415C223.404 106.79 223.499 107.229 223.499 107.733C223.499 108.415 223.325 109.015 222.976 109.534C222.628 110.049 222.124 110.453 221.465 110.744C220.81 111.032 220.016 111.176 219.084 111.176C218.179 111.176 217.393 111.036 216.726 110.756C216.063 110.475 215.545 110.066 215.17 109.528C214.798 108.991 214.598 108.335 214.567 107.562H216.641C216.671 107.968 216.796 108.305 217.016 108.574C217.236 108.843 217.522 109.044 217.874 109.176C218.23 109.309 218.628 109.375 219.067 109.375C219.526 109.375 219.927 109.307 220.272 109.17C220.62 109.03 220.893 108.837 221.09 108.591C221.287 108.341 221.387 108.049 221.391 107.716C221.387 107.413 221.298 107.163 221.124 106.966C220.95 106.765 220.706 106.598 220.391 106.466C220.081 106.33 219.717 106.208 219.3 106.102L217.976 105.761C217.018 105.515 216.26 105.142 215.704 104.642C215.151 104.138 214.874 103.47 214.874 102.636C214.874 101.951 215.06 101.35 215.431 100.835C215.806 100.32 216.315 99.9205 216.959 99.6364C217.603 99.3485 218.332 99.2045 219.147 99.2045C219.973 99.2045 220.696 99.3485 221.317 99.6364C221.942 99.9205 222.433 100.316 222.789 100.824C223.145 101.328 223.329 101.907 223.34 102.562H221.312ZM235.246 99.3636V111H233.138V101.415H233.07L230.349 103.153V101.222L233.241 99.3636H235.246ZM242.977 111.159C242.133 111.159 241.383 111.017 240.727 110.733C240.076 110.449 239.564 110.061 239.193 109.568C238.826 109.072 238.644 108.509 238.648 107.881C238.644 107.392 238.75 106.943 238.966 106.534C239.182 106.125 239.474 105.784 239.841 105.511C240.212 105.235 240.625 105.059 241.08 104.983V104.903C240.481 104.771 239.996 104.466 239.625 103.989C239.258 103.508 239.076 102.953 239.08 102.324C239.076 101.725 239.242 101.191 239.58 100.722C239.917 100.252 240.379 99.8826 240.966 99.6136C241.553 99.3409 242.224 99.2045 242.977 99.2045C243.724 99.2045 244.388 99.3409 244.972 99.6136C245.559 99.8826 246.021 100.252 246.358 100.722C246.699 101.191 246.869 101.725 246.869 102.324C246.869 102.953 246.682 103.508 246.307 103.989C245.936 104.466 245.456 104.771 244.869 104.903V104.983C245.324 105.059 245.733 105.235 246.097 105.511C246.464 105.784 246.756 106.125 246.972 106.534C247.191 106.943 247.301 107.392 247.301 107.881C247.301 108.509 247.116 109.072 246.744 109.568C246.373 110.061 245.862 110.449 245.21 110.733C244.563 111.017 243.818 111.159 242.977 111.159ZM242.977 109.534C243.413 109.534 243.792 109.46 244.114 109.312C244.436 109.161 244.686 108.949 244.864 108.676C245.042 108.403 245.133 108.089 245.136 107.733C245.133 107.362 245.036 107.034 244.847 106.75C244.661 106.462 244.405 106.237 244.08 106.074C243.758 105.911 243.39 105.83 242.977 105.83C242.561 105.83 242.189 105.911 241.864 106.074C241.538 106.237 241.28 106.462 241.091 106.75C240.905 107.034 240.814 107.362 240.818 107.733C240.814 108.089 240.902 108.403 241.08 108.676C241.258 108.945 241.508 109.155 241.83 109.307C242.155 109.458 242.538 109.534 242.977 109.534ZM242.977 104.233C243.333 104.233 243.648 104.161 243.921 104.017C244.197 103.873 244.415 103.672 244.574 103.415C244.733 103.157 244.814 102.86 244.818 102.523C244.814 102.189 244.735 101.898 244.58 101.648C244.424 101.394 244.208 101.199 243.932 101.062C243.655 100.922 243.337 100.852 242.977 100.852C242.61 100.852 242.286 100.922 242.006 101.062C241.729 101.199 241.513 101.394 241.358 101.648C241.206 101.898 241.133 102.189 241.136 102.523C241.133 102.86 241.208 103.157 241.364 103.415C241.523 103.669 241.741 103.869 242.017 104.017C242.297 104.161 242.617 104.233 242.977 104.233ZM254.11 111.222C253.175 111.222 252.372 110.985 251.701 110.511C251.034 110.034 250.521 109.347 250.161 108.449C249.805 107.547 249.627 106.462 249.627 105.193C249.631 103.924 249.811 102.845 250.167 101.955C250.527 101.061 251.04 100.379 251.707 99.9091C252.377 99.4394 253.178 99.2045 254.11 99.2045C255.042 99.2045 255.843 99.4394 256.514 99.9091C257.184 100.379 257.697 101.061 258.053 101.955C258.413 102.848 258.593 103.928 258.593 105.193C258.593 106.466 258.413 107.553 258.053 108.455C257.697 109.352 257.184 110.038 256.514 110.511C255.847 110.985 255.046 111.222 254.11 111.222ZM254.11 109.443C254.837 109.443 255.411 109.085 255.832 108.369C256.256 107.65 256.468 106.591 256.468 105.193C256.468 104.269 256.372 103.492 256.178 102.864C255.985 102.235 255.712 101.761 255.36 101.443C255.008 101.121 254.591 100.96 254.11 100.96C253.387 100.96 252.815 101.32 252.394 102.04C251.974 102.756 251.762 103.807 251.758 105.193C251.754 106.121 251.847 106.902 252.036 107.534C252.23 108.167 252.502 108.644 252.855 108.966C253.207 109.284 253.625 109.443 254.11 109.443ZM118.368 127.336H121.376V129.208H118.368V127.336ZM122.992 123.416H124.96V136.056C124.96 136.557 124.901 136.952 124.784 137.24C124.677 137.539 124.475 137.773 124.176 137.944C123.877 138.104 123.509 138.216 123.072 138.28C122.645 138.344 122.139 138.376 121.552 138.376C121.531 138.195 121.477 137.976 121.392 137.72C121.307 137.475 121.211 137.229 121.104 136.984C120.997 136.739 120.891 136.531 120.784 136.36C121.189 136.371 121.563 136.381 121.904 136.392C122.256 136.392 122.501 136.392 122.64 136.392C122.768 136.392 122.859 136.371 122.912 136.328C122.965 136.275 122.992 136.184 122.992 136.056V123.416ZM120.912 127.336H121.248L121.568 127.288L122.72 127.576C122.56 128.984 122.309 130.269 121.968 131.432C121.627 132.584 121.189 133.603 120.656 134.488C120.123 135.373 119.483 136.115 118.736 136.712C118.661 136.552 118.549 136.376 118.4 136.184C118.261 135.981 118.112 135.784 117.952 135.592C117.803 135.4 117.659 135.24 117.52 135.112C118.139 134.675 118.677 134.077 119.136 133.32C119.605 132.552 119.989 131.683 120.288 130.712C120.587 129.741 120.795 128.723 120.912 127.656V127.336ZM124.896 126.04C125.131 127.32 125.456 128.536 125.872 129.688C126.288 130.84 126.821 131.864 127.472 132.76C128.123 133.656 128.917 134.371 129.856 134.904C129.717 135.032 129.557 135.197 129.376 135.4C129.205 135.592 129.04 135.795 128.88 136.008C128.72 136.221 128.592 136.419 128.496 136.6C127.568 135.928 126.795 135.069 126.176 134.024C125.557 132.968 125.056 131.779 124.672 130.456C124.299 129.123 123.995 127.715 123.76 126.232L124.896 126.04ZM127.664 126.344L129.344 127.336C129.013 127.763 128.656 128.195 128.272 128.632C127.888 129.059 127.504 129.469 127.12 129.864C126.736 130.248 126.373 130.589 126.032 130.888L124.576 129.944C124.907 129.635 125.264 129.277 125.648 128.872C126.032 128.467 126.4 128.045 126.752 127.608C127.104 127.16 127.408 126.739 127.664 126.344ZM114.496 125.944L115.616 124.52C115.936 124.691 116.288 124.893 116.672 125.128C117.056 125.352 117.424 125.581 117.776 125.816C118.128 126.051 118.411 126.269 118.624 126.472L117.456 128.072C117.253 127.869 116.981 127.64 116.64 127.384C116.309 127.128 115.952 126.872 115.568 126.616C115.184 126.36 114.827 126.136 114.496 125.944ZM114.48 135.208C114.725 134.835 115.003 134.392 115.312 133.88C115.621 133.368 115.931 132.829 116.24 132.264C116.56 131.688 116.853 131.112 117.12 130.536L118.576 131.72C118.331 132.243 118.069 132.771 117.792 133.304C117.525 133.837 117.253 134.365 116.976 134.888C116.699 135.411 116.416 135.907 116.128 136.376L114.48 135.208ZM143.168 123.368L144.56 124.968C143.739 125.181 142.843 125.368 141.872 125.528C140.912 125.677 139.915 125.811 138.88 125.928C137.845 126.035 136.805 126.125 135.76 126.2C134.715 126.264 133.707 126.312 132.736 126.344C132.704 126.099 132.64 125.811 132.544 125.48C132.448 125.139 132.352 124.861 132.256 124.648C133.216 124.616 134.197 124.563 135.2 124.488C136.213 124.413 137.2 124.323 138.16 124.216C139.131 124.109 140.043 123.987 140.896 123.848C141.749 123.709 142.507 123.549 143.168 123.368ZM132.416 127.912H145.056V129.752H132.416V127.912ZM131.312 131.64H146.016V133.528H131.312V131.64ZM137.664 125.64H139.664V136.136C139.664 136.712 139.584 137.139 139.424 137.416C139.275 137.704 139.003 137.928 138.608 138.088C138.235 138.227 137.749 138.317 137.152 138.36C136.565 138.403 135.861 138.419 135.04 138.408C135.008 138.227 134.944 138.019 134.848 137.784C134.763 137.56 134.667 137.331 134.56 137.096C134.453 136.872 134.352 136.675 134.256 136.504C134.661 136.515 135.061 136.525 135.456 136.536C135.851 136.547 136.203 136.552 136.512 136.552C136.821 136.552 137.04 136.552 137.168 136.552C137.349 136.541 137.477 136.504 137.552 136.44C137.627 136.376 137.664 136.264 137.664 136.104V125.64ZM152.88 126.488H162.496V134.04H160.608V128.344H154.672V134.168H152.88V126.488ZM156.64 123.48H158.576V138.392H156.64V123.48ZM153.824 131.4H161.44V133.256H153.824V131.4ZM148.704 124.888L149.744 123.464C150.096 123.592 150.464 123.752 150.848 123.944C151.232 124.125 151.595 124.317 151.936 124.52C152.288 124.723 152.576 124.92 152.8 125.112L151.68 126.68C151.477 126.488 151.205 126.285 150.864 126.072C150.533 125.848 150.176 125.635 149.792 125.432C149.408 125.219 149.045 125.037 148.704 124.888ZM147.744 129.224L148.752 127.784C149.093 127.901 149.461 128.051 149.856 128.232C150.251 128.403 150.624 128.584 150.976 128.776C151.339 128.968 151.632 129.155 151.856 129.336L150.768 130.936C150.565 130.744 150.293 130.547 149.952 130.344C149.611 130.131 149.243 129.928 148.848 129.736C148.464 129.544 148.096 129.373 147.744 129.224ZM148.304 136.968C148.581 136.563 148.885 136.088 149.216 135.544C149.557 134.989 149.904 134.403 150.256 133.784C150.608 133.155 150.939 132.536 151.248 131.928L152.672 133.176C152.405 133.731 152.117 134.301 151.808 134.888C151.509 135.464 151.2 136.035 150.88 136.6C150.571 137.165 150.261 137.709 149.952 138.232L148.304 136.968ZM165.856 135.288H172.624V136.92H165.856V135.288ZM164.976 124.056H172.528V125.656H166.608V137.992H164.976V124.056ZM169.12 127.448V128.856H170.288V127.448H169.12ZM167.744 126.328H171.744V129.976H167.744V126.328ZM167.952 131.752V133.48H168.56V131.752H167.952ZM167.056 130.616H169.488V134.6H167.056V130.616ZM170.848 131.752V133.48H171.52V131.752H170.848ZM169.936 130.616H172.48V134.6H169.936V130.616ZM173.728 126.296H178.208V128.04H173.728V126.296ZM175.712 126.968H176.608V129.736C176.608 130.045 176.629 130.424 176.672 130.872C176.725 131.309 176.811 131.789 176.928 132.312C177.056 132.835 177.227 133.363 177.44 133.896C177.664 134.429 177.947 134.947 178.288 135.448C178.629 135.939 179.04 136.381 179.52 136.776C179.413 136.904 179.285 137.069 179.136 137.272C178.987 137.475 178.843 137.677 178.704 137.88C178.576 138.083 178.464 138.264 178.368 138.424C177.941 138.083 177.568 137.672 177.248 137.192C176.928 136.723 176.661 136.227 176.448 135.704C176.235 135.181 176.069 134.685 175.952 134.216C175.835 133.736 175.749 133.325 175.696 132.984C175.653 133.336 175.557 133.752 175.408 134.232C175.269 134.701 175.077 135.192 174.832 135.704C174.587 136.205 174.283 136.696 173.92 137.176C173.568 137.656 173.157 138.072 172.688 138.424C172.613 138.285 172.512 138.115 172.384 137.912C172.267 137.709 172.139 137.507 172 137.304C171.861 137.112 171.739 136.957 171.632 136.84C172.165 136.445 172.613 135.997 172.976 135.496C173.349 134.995 173.653 134.477 173.888 133.944C174.123 133.4 174.304 132.867 174.432 132.344C174.571 131.821 174.661 131.336 174.704 130.888C174.747 130.44 174.768 130.056 174.768 129.736V126.968H175.712ZM173.616 123.384L175.488 123.64C175.371 124.611 175.211 125.555 175.008 126.472C174.816 127.389 174.581 128.248 174.304 129.048C174.027 129.837 173.696 130.531 173.312 131.128C173.205 131.021 173.056 130.893 172.864 130.744C172.672 130.595 172.475 130.451 172.272 130.312C172.08 130.163 171.909 130.045 171.76 129.96C172.101 129.448 172.389 128.845 172.624 128.152C172.869 127.448 173.072 126.691 173.232 125.88C173.403 125.059 173.531 124.227 173.616 123.384ZM177.632 126.296H177.888L178.16 126.232L179.408 126.536C179.355 127.059 179.285 127.597 179.2 128.152C179.125 128.696 179.045 129.219 178.96 129.72C178.875 130.221 178.784 130.664 178.688 131.048L177.2 130.616C177.264 130.264 177.323 129.859 177.376 129.4C177.429 128.941 177.477 128.467 177.52 127.976C177.563 127.475 177.6 127.005 177.632 126.568V126.296ZM182.736 126.616H194.416V127.864H182.736V126.616ZM184.032 130.2H187.136V131.16H184.032V130.2ZM183.504 131.64H187.136V132.6H183.504V131.64ZM183.952 134.968H193.072V136.088H183.952V134.968ZM183.952 136.792H193.072V137.992H183.952V136.792ZM189.888 131.64H193.632V132.6H189.888V131.64ZM189.888 130.2H193.024V131.16H189.888V130.2ZM187.568 127.128H189.44V132.728H187.568V127.128ZM187.6 133.624H189.408V137.784H187.6V133.624ZM181.664 128.424H195.488V131.144H193.6V129.704H183.472V131.144H181.664V128.424ZM181.408 124.216H195.744V125.72H181.408V124.216ZM184.928 123.4H186.816V126.472H184.928V123.4ZM190.24 123.4H192.16V126.472H190.24V123.4ZM182.848 133.096H194.48V138.44H192.656V134.296H184.592V138.44H182.848V133.096ZM205.2 128.744C204.773 128.744 204.411 128.6 204.112 128.312C203.824 128.024 203.68 127.672 203.68 127.256C203.68 126.808 203.824 126.445 204.112 126.168C204.411 125.88 204.773 125.736 205.2 125.736C205.627 125.736 205.984 125.88 206.272 126.168C206.571 126.445 206.72 126.808 206.72 127.256C206.72 127.672 206.571 128.024 206.272 128.312C205.984 128.6 205.627 128.744 205.2 128.744ZM205.2 136.376C204.773 136.376 204.411 136.232 204.112 135.944C203.824 135.656 203.68 135.304 203.68 134.888C203.68 134.44 203.824 134.077 204.112 133.8C204.411 133.512 204.773 133.368 205.2 133.368C205.627 133.368 205.984 133.512 206.272 133.8C206.571 134.077 206.72 134.44 206.72 134.888C206.72 135.304 206.571 135.656 206.272 135.944C205.984 136.232 205.627 136.376 205.2 136.376ZM218.624 138.455V123.909H219.556V138.455H218.624ZM221.312 128.562C221.259 128.066 221.035 127.68 220.641 127.403C220.251 127.127 219.743 126.989 219.118 126.989C218.679 126.989 218.302 127.055 217.988 127.188C217.673 127.32 217.433 127.5 217.266 127.727C217.099 127.955 217.014 128.214 217.01 128.506C217.01 128.748 217.065 128.958 217.175 129.136C217.289 129.314 217.442 129.466 217.635 129.591C217.829 129.712 218.043 129.814 218.277 129.898C218.512 129.981 218.749 130.051 218.988 130.108L220.079 130.381C220.518 130.483 220.94 130.621 221.346 130.795C221.755 130.97 222.12 131.189 222.442 131.455C222.768 131.72 223.026 132.04 223.215 132.415C223.404 132.79 223.499 133.229 223.499 133.733C223.499 134.415 223.325 135.015 222.976 135.534C222.628 136.049 222.124 136.453 221.465 136.744C220.81 137.032 220.016 137.176 219.084 137.176C218.179 137.176 217.393 137.036 216.726 136.756C216.063 136.475 215.545 136.066 215.17 135.528C214.798 134.991 214.598 134.335 214.567 133.562H216.641C216.671 133.968 216.796 134.305 217.016 134.574C217.236 134.843 217.522 135.044 217.874 135.176C218.23 135.309 218.628 135.375 219.067 135.375C219.526 135.375 219.927 135.307 220.272 135.17C220.62 135.03 220.893 134.837 221.09 134.591C221.287 134.341 221.387 134.049 221.391 133.716C221.387 133.413 221.298 133.163 221.124 132.966C220.95 132.765 220.706 132.598 220.391 132.466C220.081 132.33 219.717 132.208 219.3 132.102L217.976 131.761C217.018 131.515 216.26 131.142 215.704 130.642C215.151 130.138 214.874 129.47 214.874 128.636C214.874 127.951 215.06 127.35 215.431 126.835C215.806 126.32 216.315 125.92 216.959 125.636C217.603 125.348 218.332 125.205 219.147 125.205C219.973 125.205 220.696 125.348 221.317 125.636C221.942 125.92 222.433 126.316 222.789 126.824C223.145 127.328 223.329 127.907 223.34 128.562H221.312ZM235.246 125.364V137H233.138V127.415H233.07L230.349 129.153V127.222L233.241 125.364H235.246ZM242.881 125.205C243.438 125.208 243.979 125.307 244.506 125.5C245.036 125.689 245.513 126 245.938 126.432C246.362 126.86 246.699 127.434 246.949 128.153C247.199 128.873 247.324 129.763 247.324 130.824C247.328 131.824 247.222 132.718 247.006 133.506C246.794 134.29 246.489 134.953 246.091 135.494C245.693 136.036 245.214 136.449 244.653 136.733C244.093 137.017 243.462 137.159 242.761 137.159C242.027 137.159 241.375 137.015 240.807 136.727C240.242 136.439 239.786 136.045 239.438 135.545C239.089 135.045 238.875 134.473 238.796 133.83H240.869C240.975 134.292 241.191 134.659 241.517 134.932C241.847 135.201 242.261 135.335 242.761 135.335C243.568 135.335 244.189 134.985 244.625 134.284C245.061 133.583 245.278 132.61 245.278 131.364H245.199C245.013 131.697 244.773 131.985 244.477 132.227C244.182 132.466 243.847 132.65 243.472 132.778C243.1 132.907 242.706 132.972 242.29 132.972C241.608 132.972 240.994 132.809 240.449 132.483C239.907 132.157 239.477 131.71 239.159 131.142C238.845 130.574 238.686 129.924 238.682 129.193C238.682 128.436 238.856 127.756 239.205 127.153C239.557 126.547 240.047 126.07 240.676 125.722C241.305 125.369 242.04 125.197 242.881 125.205ZM242.886 126.909C242.477 126.909 242.108 127.009 241.778 127.21C241.453 127.407 241.195 127.676 241.006 128.017C240.82 128.354 240.727 128.731 240.727 129.148C240.731 129.561 240.824 129.936 241.006 130.273C241.191 130.61 241.443 130.877 241.761 131.074C242.083 131.271 242.451 131.369 242.864 131.369C243.171 131.369 243.456 131.311 243.722 131.193C243.987 131.076 244.218 130.913 244.415 130.705C244.616 130.492 244.771 130.252 244.881 129.983C244.994 129.714 245.049 129.43 245.046 129.131C245.046 128.733 244.951 128.366 244.761 128.028C244.576 127.691 244.32 127.42 243.994 127.216C243.672 127.011 243.303 126.909 242.886 126.909ZM254.157 137.222C253.221 137.222 252.418 136.985 251.748 136.511C251.081 136.034 250.568 135.347 250.208 134.449C249.852 133.547 249.674 132.462 249.674 131.193C249.678 129.924 249.858 128.845 250.214 127.955C250.574 127.061 251.087 126.379 251.754 125.909C252.424 125.439 253.225 125.205 254.157 125.205C255.089 125.205 255.89 125.439 256.561 125.909C257.231 126.379 257.744 127.061 258.1 127.955C258.46 128.848 258.64 129.928 258.64 131.193C258.64 132.466 258.46 133.553 258.1 134.455C257.744 135.352 257.231 136.038 256.561 136.511C255.894 136.985 255.093 137.222 254.157 137.222ZM254.157 135.443C254.884 135.443 255.458 135.085 255.879 134.369C256.303 133.65 256.515 132.591 256.515 131.193C256.515 130.269 256.418 129.492 256.225 128.864C256.032 128.235 255.759 127.761 255.407 127.443C255.055 127.121 254.638 126.96 254.157 126.96C253.434 126.96 252.862 127.32 252.441 128.04C252.021 128.756 251.809 129.807 251.805 131.193C251.801 132.121 251.894 132.902 252.083 133.534C252.276 134.167 252.549 134.644 252.901 134.966C253.254 135.284 253.672 135.443 254.157 135.443ZM116.064 150.424L117.824 149.736C118.059 150.088 118.293 150.477 118.528 150.904C118.763 151.32 118.971 151.725 119.152 152.12C119.344 152.515 119.488 152.877 119.584 153.208L117.68 153.992C117.605 153.672 117.483 153.309 117.312 152.904C117.141 152.488 116.944 152.067 116.72 151.64C116.507 151.203 116.288 150.797 116.064 150.424ZM126 149.656L128.08 150.296C127.867 150.733 127.643 151.171 127.408 151.608C127.184 152.035 126.96 152.445 126.736 152.84C126.512 153.224 126.304 153.565 126.112 153.864L124.352 153.256C124.555 152.936 124.757 152.568 124.96 152.152C125.163 151.736 125.355 151.309 125.536 150.872C125.728 150.435 125.883 150.029 126 149.656ZM115.728 154.408H128.432V156.312H115.728V154.408ZM114.752 158.232H129.264V160.168H114.752V158.232ZM120.944 149.384H122.96V164.408H120.944V149.384ZM131.296 150.392H137.136V152.136H131.296V150.392ZM133.088 155.128H136.816V162.408H133.088V160.76H135.168V156.776H133.088V155.128ZM132.976 151.08L134.768 151.336C134.619 152.488 134.421 153.619 134.176 154.728C133.941 155.827 133.637 156.856 133.264 157.816C132.891 158.776 132.443 159.624 131.92 160.36C131.856 160.211 131.76 160.019 131.632 159.784C131.515 159.549 131.387 159.32 131.248 159.096C131.109 158.861 130.981 158.675 130.864 158.536C131.28 157.939 131.621 157.245 131.888 156.456C132.165 155.667 132.389 154.813 132.56 153.896C132.741 152.979 132.88 152.04 132.976 151.08ZM132.304 155.128H133.904V163.656H132.304V155.128ZM137.392 150.808H145.856V152.296H137.392V150.808ZM137.248 157.128H146.096V158.616H137.248V157.128ZM140.048 159.48H143.824V160.984H140.048V159.48ZM140.64 149.512H142.496V151.64H140.64V149.512ZM140.656 155.896H142.464V157.72H140.656V155.896ZM137.312 153.992H145.984V156.584H144.272V155.432H138.96V156.584H137.312V153.992ZM142.944 152.04L144.688 152.488C144.507 152.819 144.336 153.139 144.176 153.448C144.016 153.747 143.872 154.003 143.744 154.216L142.24 153.8C142.325 153.629 142.411 153.443 142.496 153.24C142.581 153.027 142.661 152.819 142.736 152.616C142.821 152.403 142.891 152.211 142.944 152.04ZM138.528 152.44L140.032 151.976C140.203 152.243 140.357 152.547 140.496 152.888C140.635 153.229 140.731 153.528 140.784 153.784L139.2 154.328C139.168 154.061 139.088 153.752 138.96 153.4C138.832 153.048 138.688 152.728 138.528 152.44ZM143.216 159.48H145.008C145.008 159.48 145.003 159.565 144.992 159.736C144.992 159.896 144.981 160.029 144.96 160.136C144.917 160.883 144.864 161.507 144.8 162.008C144.747 162.499 144.677 162.888 144.592 163.176C144.517 163.475 144.411 163.699 144.272 163.848C144.123 164.008 143.957 164.125 143.776 164.2C143.595 164.275 143.387 164.328 143.152 164.36C142.96 164.381 142.699 164.397 142.368 164.408C142.048 164.419 141.701 164.413 141.328 164.392C141.307 164.147 141.253 163.869 141.168 163.56C141.083 163.251 140.965 162.984 140.816 162.76C141.125 162.792 141.413 162.813 141.68 162.824C141.947 162.824 142.144 162.824 142.272 162.824C142.4 162.824 142.501 162.819 142.576 162.808C142.651 162.787 142.715 162.744 142.768 162.68C142.853 162.605 142.917 162.461 142.96 162.248C143.013 162.035 143.061 161.72 143.104 161.304C143.147 160.888 143.184 160.355 143.216 159.704V159.48ZM139.376 157.624H141.152C141.109 158.381 141.024 159.101 140.896 159.784C140.779 160.467 140.597 161.101 140.352 161.688C140.107 162.264 139.755 162.787 139.296 163.256C138.848 163.736 138.261 164.147 137.536 164.488C137.429 164.275 137.269 164.029 137.056 163.752C136.853 163.485 136.656 163.272 136.464 163.112C137.083 162.835 137.573 162.509 137.936 162.136C138.309 161.763 138.592 161.341 138.784 160.872C138.976 160.403 139.109 159.901 139.184 159.368C139.269 158.824 139.333 158.243 139.376 157.624ZM155.28 154.744C154.853 154.744 154.491 154.6 154.192 154.312C153.904 154.024 153.76 153.672 153.76 153.256C153.76 152.808 153.904 152.445 154.192 152.168C154.491 151.88 154.853 151.736 155.28 151.736C155.707 151.736 156.064 151.88 156.352 152.168C156.651 152.445 156.8 152.808 156.8 153.256C156.8 153.672 156.651 154.024 156.352 154.312C156.064 154.6 155.707 154.744 155.28 154.744ZM155.28 162.376C154.853 162.376 154.491 162.232 154.192 161.944C153.904 161.656 153.76 161.304 153.76 160.888C153.76 160.44 153.904 160.077 154.192 159.8C154.491 159.512 154.853 159.368 155.28 159.368C155.707 159.368 156.064 159.512 156.352 159.8C156.651 160.077 156.8 160.44 156.8 160.888C156.8 161.304 156.651 161.656 156.352 161.944C156.064 162.232 155.707 162.376 155.28 162.376ZM168.704 164.455V149.909H169.636V164.455H168.704ZM171.392 154.562C171.339 154.066 171.115 153.68 170.721 153.403C170.331 153.127 169.823 152.989 169.198 152.989C168.759 152.989 168.382 153.055 168.068 153.188C167.753 153.32 167.513 153.5 167.346 153.727C167.179 153.955 167.094 154.214 167.09 154.506C167.09 154.748 167.145 154.958 167.255 155.136C167.369 155.314 167.522 155.466 167.715 155.591C167.909 155.712 168.123 155.814 168.357 155.898C168.592 155.981 168.829 156.051 169.068 156.108L170.159 156.381C170.598 156.483 171.02 156.621 171.426 156.795C171.835 156.97 172.2 157.189 172.522 157.455C172.848 157.72 173.106 158.04 173.295 158.415C173.484 158.79 173.579 159.229 173.579 159.733C173.579 160.415 173.405 161.015 173.056 161.534C172.708 162.049 172.204 162.453 171.545 162.744C170.89 163.032 170.096 163.176 169.164 163.176C168.259 163.176 167.473 163.036 166.806 162.756C166.143 162.475 165.625 162.066 165.25 161.528C164.878 160.991 164.678 160.335 164.647 159.562H166.721C166.751 159.968 166.876 160.305 167.096 160.574C167.316 160.843 167.602 161.044 167.954 161.176C168.31 161.309 168.708 161.375 169.147 161.375C169.606 161.375 170.007 161.307 170.352 161.17C170.7 161.03 170.973 160.837 171.17 160.591C171.367 160.341 171.467 160.049 171.471 159.716C171.467 159.413 171.378 159.163 171.204 158.966C171.03 158.765 170.786 158.598 170.471 158.466C170.161 158.33 169.797 158.208 169.38 158.102L168.056 157.761C167.098 157.515 166.34 157.142 165.784 156.642C165.231 156.138 164.954 155.47 164.954 154.636C164.954 153.951 165.14 153.35 165.511 152.835C165.886 152.32 166.395 151.92 167.039 151.636C167.683 151.348 168.412 151.205 169.227 151.205C170.053 151.205 170.776 151.348 171.397 151.636C172.022 151.92 172.513 152.316 172.869 152.824C173.225 153.328 173.409 153.907 173.42 154.562H171.392ZM184.77 163.159C183.951 163.159 183.224 163.019 182.588 162.739C181.955 162.458 181.455 162.068 181.088 161.568C180.72 161.068 180.525 160.491 180.503 159.835H182.639C182.658 160.15 182.762 160.424 182.951 160.659C183.141 160.89 183.393 161.07 183.707 161.199C184.021 161.328 184.374 161.392 184.764 161.392C185.181 161.392 185.55 161.32 185.872 161.176C186.194 161.028 186.446 160.824 186.628 160.562C186.809 160.301 186.898 160 186.895 159.659C186.898 159.307 186.807 158.996 186.622 158.727C186.436 158.458 186.167 158.248 185.815 158.097C185.467 157.945 185.046 157.869 184.554 157.869H183.525V156.244H184.554C184.959 156.244 185.313 156.174 185.616 156.034C185.923 155.894 186.164 155.697 186.338 155.443C186.512 155.186 186.597 154.888 186.593 154.551C186.597 154.222 186.523 153.936 186.372 153.693C186.224 153.447 186.014 153.256 185.741 153.119C185.472 152.983 185.156 152.915 184.792 152.915C184.436 152.915 184.107 152.979 183.804 153.108C183.501 153.237 183.256 153.42 183.071 153.659C182.885 153.894 182.787 154.174 182.775 154.5H180.747C180.762 153.848 180.95 153.277 181.309 152.784C181.673 152.288 182.158 151.902 182.764 151.625C183.37 151.345 184.05 151.205 184.804 151.205C185.58 151.205 186.254 151.35 186.826 151.642C187.402 151.93 187.847 152.318 188.162 152.807C188.476 153.295 188.633 153.835 188.633 154.426C188.637 155.081 188.444 155.631 188.054 156.074C187.667 156.517 187.16 156.807 186.531 156.943V157.034C187.349 157.148 187.976 157.451 188.412 157.943C188.851 158.432 189.069 159.04 189.065 159.767C189.065 160.419 188.879 161.002 188.508 161.517C188.141 162.028 187.633 162.43 186.986 162.722C186.342 163.013 185.603 163.159 184.77 163.159ZM195.792 163.159C194.947 163.159 194.197 163.017 193.542 162.733C192.89 162.449 192.379 162.061 192.008 161.568C191.64 161.072 191.458 160.509 191.462 159.881C191.458 159.392 191.564 158.943 191.78 158.534C191.996 158.125 192.288 157.784 192.655 157.511C193.027 157.235 193.439 157.059 193.894 156.983V156.903C193.295 156.771 192.811 156.466 192.439 155.989C192.072 155.508 191.89 154.953 191.894 154.324C191.89 153.725 192.057 153.191 192.394 152.722C192.731 152.252 193.193 151.883 193.78 151.614C194.367 151.341 195.038 151.205 195.792 151.205C196.538 151.205 197.203 151.341 197.786 151.614C198.373 151.883 198.835 152.252 199.172 152.722C199.513 153.191 199.684 153.725 199.684 154.324C199.684 154.953 199.496 155.508 199.121 155.989C198.75 156.466 198.271 156.771 197.684 156.903V156.983C198.138 157.059 198.547 157.235 198.911 157.511C199.278 157.784 199.57 158.125 199.786 158.534C200.006 158.943 200.116 159.392 200.116 159.881C200.116 160.509 199.93 161.072 199.559 161.568C199.188 162.061 198.676 162.449 198.025 162.733C197.377 163.017 196.633 163.159 195.792 163.159ZM195.792 161.534C196.227 161.534 196.606 161.46 196.928 161.312C197.25 161.161 197.5 160.949 197.678 160.676C197.856 160.403 197.947 160.089 197.951 159.733C197.947 159.362 197.85 159.034 197.661 158.75C197.475 158.462 197.22 158.237 196.894 158.074C196.572 157.911 196.205 157.83 195.792 157.83C195.375 157.83 195.004 157.911 194.678 158.074C194.352 158.237 194.095 158.462 193.905 158.75C193.72 159.034 193.629 159.362 193.633 159.733C193.629 160.089 193.716 160.403 193.894 160.676C194.072 160.945 194.322 161.155 194.644 161.307C194.97 161.458 195.352 161.534 195.792 161.534ZM195.792 156.233C196.148 156.233 196.462 156.161 196.735 156.017C197.011 155.873 197.229 155.672 197.388 155.415C197.547 155.157 197.629 154.86 197.633 154.523C197.629 154.189 197.549 153.898 197.394 153.648C197.239 153.394 197.023 153.199 196.746 153.062C196.47 152.922 196.152 152.852 195.792 152.852C195.424 152.852 195.1 152.922 194.82 153.062C194.544 153.199 194.328 153.394 194.172 153.648C194.021 153.898 193.947 154.189 193.951 154.523C193.947 154.86 194.023 155.157 194.178 155.415C194.337 155.669 194.555 155.869 194.831 156.017C195.112 156.161 195.432 156.233 195.792 156.233ZM206.925 163.222C205.989 163.222 205.186 162.985 204.516 162.511C203.849 162.034 203.336 161.347 202.976 160.449C202.62 159.547 202.442 158.462 202.442 157.193C202.445 155.924 202.625 154.845 202.981 153.955C203.341 153.061 203.855 152.379 204.521 151.909C205.192 151.439 205.993 151.205 206.925 151.205C207.856 151.205 208.658 151.439 209.328 151.909C209.998 152.379 210.512 153.061 210.868 153.955C211.228 154.848 211.408 155.928 211.408 157.193C211.408 158.466 211.228 159.553 210.868 160.455C210.512 161.352 209.998 162.038 209.328 162.511C208.661 162.985 207.86 163.222 206.925 163.222ZM206.925 161.443C207.652 161.443 208.226 161.085 208.646 160.369C209.07 159.65 209.283 158.591 209.283 157.193C209.283 156.269 209.186 155.492 208.993 154.864C208.8 154.235 208.527 153.761 208.175 153.443C207.822 153.121 207.406 152.96 206.925 152.96C206.201 152.96 205.629 153.32 205.209 154.04C204.788 154.756 204.576 155.807 204.572 157.193C204.569 158.121 204.661 158.902 204.851 159.534C205.044 160.167 205.317 160.644 205.669 160.966C206.021 161.284 206.44 161.443 206.925 161.443Z" fill="black"/>
</svg>
