<svg width="462" height="144" viewBox="0 0 462 144" fill="none" xmlns="http://www.w3.org/2000/svg">
<path d="M27.7931 131.294C2.28221 114.119 -1.05544 98.8131 0.23486 67.7647C42.4897 60.868 74.6596 62.7639 114.708 65.6471V69.8823C127.884 67.6316 134.085 67.5022 140.146 72C151.405 88.6714 151.504 97.9541 135.906 114.353C121.561 119.143 115.712 118.014 106.228 114.353C100.716 123.732 96.3236 127.69 87.1494 133.412C99.1605 133.101 104.494 133.53 106.228 137.647C103.525 142.418 98.2676 143.764 82.9097 144H27.7931C17.5925 143.072 12.6783 141.836 10.8342 133.412C17.8812 129.98 21.3014 131.32 27.7931 131.294Z" fill="white"/>
<path d="M19.3138 16.9412C27.6903 29.0708 29.9442 36.7984 27.7932 52.9412C37.6113 44.702 42.0358 40.626 40.5124 38.1177C32.655 23.8515 27.9551 15.887 34.1528 0C20.5645 9.31832 16.2317 13.3991 19.3138 16.9412Z" fill="white"/>
<path d="M46.872 16.9412C56.1945 31.4851 58.2681 39.7954 53.2316 55.0588C65.0079 47.7453 70.3668 41.6085 68.0707 38.1177C59.4507 23.5276 55.3234 15.3132 61.7111 0C47.6163 9.07124 44.1272 12.8556 46.872 16.9412Z" fill="white"/>
<path d="M74.4303 16.9412C81.6464 29.2157 84.5425 36.5324 80.7899 52.9412C87.8897 48.5476 92.2785 46.3502 93.5091 38.1177C85.3368 22.3498 82.2374 13.7393 87.1495 0C76.472 7.95583 72.6837 11.8981 74.4303 16.9412Z" fill="white"/>
<path d="M352.133 144H216.461C218.81 124.941 231.26 122.063 258.859 120.706C258.74 112.896 256.49 109.606 248.259 105.882L247.196 106.318C228.555 113.959 217.779 118.375 199.502 120.706C183.47 114.046 184.332 110.783 195.263 105.882C207.467 101.947 212.792 99.2378 218.581 93.1765C215.187 80.1844 199.43 80.0611 178.304 76.2353L176.184 82.5883H167.704L165.585 65.6471C152.447 50.194 162.315 40.5822 182.544 23.2941C198.047 16.1668 205.333 16.0955 216.461 21.1765C220.294 12.1562 223.523 9.78946 231.3 10.5882C240.974 13.438 243.197 18.1446 241.9 31.7647C278.655 18.6252 294.829 15.8877 313.975 21.1765C351.711 35.5211 363.023 52.2178 358.492 103.765C389.182 116.295 406.316 118.467 436.928 114.353C463.524 115.582 473.875 136.918 443.287 144C403.327 143.115 381.437 139.404 343.653 124.941C349.474 131.07 352.118 134.824 352.133 144Z" fill="white"/>
</svg>
